<svg xmlns="http://www.w3.org/2000/svg" width="512" height="512" viewBox="0 0 512 512" version="1.1">
	<path d="M 13.156 49.750 C 16.993 58.294, 250.289 462.517, 253.570 466.306 L 256 469.112 258.430 466.306 C 261.711 462.517, 495.007 58.294, 498.844 49.750 L 501.875 43 407.115 43 L 312.355 43 291.976 78.250 C 280.767 97.638, 268.278 119.237, 264.221 126.250 C 260.165 133.262, 256.465 139, 256 139 C 255.535 139, 251.835 133.262, 247.779 126.250 C 243.722 119.237, 231.233 97.638, 220.024 78.250 L 199.645 43 104.885 43 L 10.125 43 13.156 49.750" stroke="none" fill="black" fill-rule="evenodd"/>
</svg>