<svg width="200" height="200" viewBox="0 0 200 200" fill="none" xmlns="http://www.w3.org/2000/svg">
<circle cx="93.5" cy="100.5" r="79.8171" stroke="black" stroke-width="5.36585"/>
<circle cx="93.5" cy="100.5" r="59.6951" stroke="black" stroke-width="5.36585"/>
<path d="M52.5854 115.022C61.9146 123.272 77.5506 123.383 88.3912 115.022C99.2317 106.661 113.744 106.661 124.197 115.022C134.65 123.383 149.768 123.383 160.003 115.022C170.238 106.661 180.604 106.661 189.415 109.844" stroke="black" stroke-width="5.36585"/>
<path d="M52.5854 133.802C61.9146 142.052 77.5506 142.163 88.3912 133.802C99.2317 125.441 113.744 125.441 124.197 133.802C134.65 142.163 149.768 142.163 160.003 133.802C170.238 125.441 180.604 125.441 189.415 128.625" stroke="black" stroke-width="5.36585"/>
<path d="M52.5854 152.583C61.9146 160.833 77.5506 160.944 88.3912 152.583C99.2317 144.222 113.744 144.222 124.197 152.583C134.65 160.944 149.768 160.944 160.003 152.583C170.238 144.222 180.604 144.222 189.415 147.405" stroke="black" stroke-width="5.36585"/>
<circle cx="74.4634" cy="82.4634" r="8.04878" stroke="black" stroke-width="5.36585"/>
<circle cx="74.4634" cy="82.4634" r="18.7805" stroke="black" stroke-width="5.36585"/>
<path d="M180.085 84.8738H123.195C117.829 84.8738 114.38 82.7028 112.463 79.508C110.451 76.1543 110.451 71.4592 112.858 67.4348L143.866 22" stroke="black" stroke-width="5.36585" stroke-linecap="square" stroke-linejoin="round"/>
<path d="M167.22 23.3415L137.829 66.0933H180.085" stroke="black" stroke-width="5.36585" stroke-linecap="square" stroke-linejoin="round"/>
</svg>
