<svg width="156" height="149" viewBox="c" fill="none" xmlns="http://www.w3.org/2000/svg">
<path d="M98.5354 72.6456C94.7736 69.3018 89.8972 73.3074 89.3398 74.9445C89.4443 79.4378 94.5646 71.7052 98.3265 74.6311C102.088 77.5569 112.642 100.128 115.568 105.562C118.494 110.995 118.076 118.937 119.539 124.893C120.709 129.658 119.226 129.073 121.211 129.282L123.301 127.819C122.465 121.41 121.253 112.96 118.494 104.935C115.046 94.9032 103.238 76.8254 98.5354 72.6456Z" fill="#012724"/>
<path d="M116.297 23.1152C112.535 19.7713 114.137 22.6276 113.58 24.2646C113.685 28.758 116.297 57.3262 116.297 62.092C116.297 68.4662 118.805 99.2923 119.745 104.726C120.798 110.807 120.79 117.37 122.253 123.326C123.424 128.091 119.223 129.074 121.208 129.283L123.298 127.82C122.462 121.411 119.118 70.5561 118.387 61.3605C117.546 50.7862 120.999 27.295 116.297 23.1152Z" fill="#012724"/>
<path fill-rule="evenodd" clip-rule="evenodd" d="M115.052 25.7815C113.372 25.7415 111.91 25.5345 110.527 24.7452C110.234 24.5777 110.103 24.1128 109.978 23.671C109.889 23.3542 109.803 23.0492 109.663 22.8741C109.355 22.4898 109.047 21.8941 108.766 21.3501C108.651 21.1288 108.541 20.9161 108.438 20.7296C108.172 20.2525 107.587 19.8274 107.025 19.4193C106.677 19.1663 106.338 18.9198 106.089 18.6715C104.179 16.7639 101.713 16.8576 99.1693 16.9542C98.9976 16.9607 98.8255 16.9672 98.6532 16.9732C96.9096 17.0332 95.4954 18.3468 94.1973 19.5526C93.7454 19.9724 93.3076 20.3791 92.8748 20.7152C90.1919 22.7994 88.8944 27.4753 90.4683 30.4447C90.6286 30.7471 90.691 30.6225 90.8077 30.3893C90.9347 30.1356 91.1261 29.7534 91.5779 29.6531C92.3341 29.4852 93.1571 29.0938 93.9241 28.7289C94.1878 28.6034 94.445 28.4811 94.6905 28.3721C94.8954 28.2812 95.1253 28.1685 95.3726 28.0474C96.7592 27.3682 98.6898 26.4225 99.8061 27.5374C99.8802 27.6114 99.9784 27.6977 100.087 27.7933C100.54 28.1911 101.178 28.751 101.031 29.2645C100.883 29.7824 98.404 30.1856 97.9327 30.1856C96.9722 30.1856 96.1438 30.633 95.31 31.0834C94.4651 31.5397 93.6146 31.9991 92.6154 31.9991C91.8416 31.9991 90.7642 32.0202 90.2089 32.5748C89.9812 32.8023 89.7766 33.1055 89.5702 33.4116C89.274 33.8507 88.9738 34.2958 88.595 34.5322C87.0236 35.5132 87.0316 37.6553 87.0379 39.3344C87.0383 39.4387 87.0387 39.5413 87.0387 39.6416C87.0387 40.8003 87.5712 41.8751 88.0997 42.9419C88.5551 43.861 89.0075 44.7741 89.1138 45.7297C89.207 46.5679 90.4107 48.7463 90.4107 47.903C90.4107 46.8331 90.7102 46.0465 91.0608 45.1258C91.1449 44.9049 91.232 44.6764 91.3185 44.4344C92.1121 42.2151 93.8692 39.8276 96.0594 38.9364C96.67 38.6879 97.2427 38.3286 97.8163 37.9687C98.8557 37.3165 99.8982 36.6623 101.175 36.6623C101.475 36.6623 101.747 36.6025 101.981 36.5511C102.575 36.4205 102.922 36.3441 102.861 37.4395C102.809 38.3817 101.011 39.8725 100.282 40.4188C99.5139 40.9939 98.8997 41.706 98.2825 42.4217C97.9987 42.7507 97.7143 43.0805 97.414 43.3981C96.8891 43.9532 96.5317 44.6478 96.1747 45.3419C95.8172 46.0367 95.4601 46.731 94.9354 47.2841C94.7244 47.5066 94.4585 47.7578 94.1703 48.0301C93.0943 49.0467 91.7076 50.357 91.7076 51.5587C91.7076 53.5999 92.5241 56.215 94.042 57.6468C95.3953 58.9234 96.5064 60.2055 97.6734 61.6624C97.9604 62.0207 97.9405 61.2139 97.934 60.9494C97.9333 60.9211 97.9327 60.899 97.9327 60.8852C97.9327 60.6078 98.0639 60.3745 98.1945 60.1423C98.3163 59.9258 98.4376 59.7101 98.4515 59.4603C98.4847 58.8637 98.863 58.2231 99.2194 57.6198C99.3972 57.3187 99.5696 57.0269 99.6908 56.7545C100.625 54.6559 101.401 52.232 101.809 49.9899C102.149 48.1207 103.144 46.4088 104.093 44.7773C104.312 44.3999 104.529 44.0269 104.734 43.6572C105.184 42.848 107.762 40.3776 108.769 41.3831C109.276 41.8894 108.643 43.6886 108.423 44.1897C108.378 44.2927 108.332 44.3985 108.284 44.5068C107.72 45.7886 107.004 47.4151 106.766 48.7234C106.552 49.9018 105.927 51.9621 105.138 52.926C105.115 52.9544 105.091 52.9828 105.068 53.0112C104.365 53.8691 103.617 54.7818 103.063 55.8334C102.378 57.1329 101.923 58.5281 101.466 59.9311C101.106 61.0358 100.744 62.1454 100.267 63.2168C99.4195 65.1218 100.828 66.1658 102.222 67.1993C102.606 67.4835 102.988 67.7669 103.322 68.0671C103.805 68.5009 104.401 68.9306 105.008 69.3681C105.951 70.0472 106.92 70.7453 107.53 71.507C107.554 71.5367 107.577 71.5664 107.601 71.596C108.248 72.406 108.827 73.1301 108.827 71.6365C108.827 71.0981 108.755 70.5918 108.686 70.1014C108.636 69.7431 108.587 69.3933 108.567 69.0458C108.512 68.042 108.351 67.0233 108.191 66.002C107.99 64.7289 107.789 63.4519 107.789 62.1949L107.789 62.1106C107.789 59.6268 107.789 57.4747 108.697 55.1569C109.593 52.8705 111.275 50.2511 112.775 48.378C112.856 48.2769 112.939 48.1433 113.029 47.9993C113.303 47.5603 113.637 47.025 114.144 47.025C114.292 47.025 114.488 46.9883 114.703 46.948C115.422 46.8135 116.349 46.64 116.349 47.6727C116.349 49.2293 115.362 50.903 114.454 52.4421C114.076 53.0839 113.712 53.7022 113.438 54.2789C112.91 55.3933 112.617 56.5911 112.325 57.7871C112.033 58.9794 111.742 60.1698 111.219 61.2738C110.097 63.6384 110.327 67.7107 111.536 69.9526C111.78 70.4052 111.866 70.8575 111.952 71.3047C112.023 71.679 112.094 72.0496 112.256 72.4137C112.632 73.2576 112.904 73.4959 113.459 73.9831C113.604 74.1098 113.767 74.2533 113.957 74.4287C114.144 74.602 114.374 74.7738 114.61 74.9504C115.055 75.2827 115.522 75.6321 115.772 76.0407C115.811 76.1035 115.848 76.1664 115.885 76.2288C116.114 76.6146 116.332 76.9811 116.738 77.2065C117.473 77.6144 118.131 77.607 118.946 77.5979C119.071 77.5965 119.199 77.5951 119.332 77.5951C119.407 77.5951 119.573 77.626 119.756 77.6599C120.086 77.7213 120.47 77.7928 120.47 77.7102C120.47 77.3828 120.263 76.9426 120.069 76.5298C119.951 76.2789 119.837 76.0382 119.778 75.8392C119.688 75.5355 119.606 75.2369 119.523 74.9398C119.349 74.3117 119.177 73.691 118.943 73.047C118.07 70.6512 117.386 68.499 117.386 65.8794C117.386 65.1457 117.452 64.4097 117.517 63.6785C117.582 62.9564 117.646 62.239 117.646 61.5329V61.5089C117.646 60.6901 117.646 59.2533 118.035 58.5536C118.06 58.5077 118.12 58.3653 118.207 58.1579C118.772 56.8047 120.496 52.683 121.479 54.538C121.879 55.293 121.758 56.0597 121.632 56.8545C121.603 57.0355 121.574 57.218 121.551 57.4022C121.34 59.0861 121.277 60.7116 121.277 62.4252C121.277 63.4448 121.24 64.4945 121.203 65.5554C121.11 68.1945 121.015 70.9033 121.479 73.3924C121.666 74.3963 122.032 75.5098 122.444 76.4149C122.563 76.6751 122.634 77.0034 122.708 77.3432C122.87 78.0893 123.044 78.8909 123.756 79.1495C124.842 79.5439 125.972 79.6929 127.111 79.8429C128.088 79.9717 129.072 80.1012 130.038 80.3873C130.868 80.6326 132.534 81.0946 131.782 79.9267C131.569 79.5954 131.387 79.2422 131.205 78.8889C130.937 78.3672 130.668 77.8453 130.298 77.3936C128.979 75.784 128.54 73.3755 128.54 71.363C128.54 70.5358 128.524 69.7036 128.507 68.8698C128.475 67.1979 128.442 65.5201 128.54 63.8645C128.604 62.7743 129.701 63.5715 130.237 63.9611C130.339 64.0354 130.42 64.0948 130.471 64.1235C131.261 64.5748 131.912 66.7928 131.912 67.6353C131.912 68.0794 131.917 68.5326 131.922 68.9914C131.948 71.3335 131.976 73.822 131.335 75.9831C131.086 76.8235 131.322 77.725 132.186 78.2283C132.374 78.3383 132.564 78.4486 132.754 78.5592C134.581 79.6228 136.464 80.719 138.252 81.8553C138.768 82.1833 140.372 82.2583 140.99 82.2583C142.322 82.2583 142.587 81.7785 141.567 80.6463C140.888 79.8932 139.693 78.5398 139.693 77.4655C139.693 76.9364 139.395 76.467 139.085 75.9781C138.748 75.4467 138.396 74.8922 138.396 74.2128C138.396 71.3992 136.047 66.5973 136.047 66.5973C136.047 66.5973 135.248 65.0593 135.248 63.5265C135.248 62.7369 134.81 60.9291 134.45 60.2101C134.219 59.7495 134.018 59.3288 133.829 58.9331C133.182 57.5818 132.676 56.5233 131.625 55.174C131.556 55.0851 131.486 54.9966 131.418 54.9084C130.571 53.8235 129.763 52.7884 129.107 51.5505C128.607 50.6081 128.031 49.887 127.481 49.1992C126.926 48.505 126.398 47.8448 126.004 47.025C125.787 46.5744 125.59 46.1617 125.405 45.7726C124.647 44.18 124.077 42.9829 123.078 41.196C122.966 40.9951 122.869 40.7959 122.776 40.6066C122.587 40.22 122.418 39.8749 122.185 39.6416C121.985 39.4418 121.84 39.0557 121.692 38.6592C121.575 38.3487 121.457 38.0319 121.307 37.7934C120.778 36.9502 120.367 36.0354 120.043 35.3172C119.945 35.0982 119.855 34.8975 119.772 34.7226C119.516 34.1842 119.296 33.7007 119.086 33.2397C118.609 32.1907 118.184 31.2576 117.516 30.0561C117.176 29.4439 116.821 28.8563 116.471 28.2775C115.968 27.4426 115.475 26.6263 115.052 25.7815ZM113.511 33.871C113.472 34.0574 113.432 34.2423 113.374 34.4103C113.258 34.7426 113.118 34.9883 112.956 35.2713C112.918 35.3375 112.879 35.4057 112.839 35.4775C112.665 35.7881 112.418 36.0395 112.169 36.2915C111.949 36.5148 111.728 36.7385 111.559 37.0042C111.323 37.374 111.125 37.8091 111.009 38.2295C110.99 38.2996 110.969 38.3712 110.948 38.4439C110.771 39.0535 110.573 39.7404 110.99 40.275C111.648 41.1185 112.316 40.6707 112.967 40.0971C113.193 39.8972 113.377 39.572 113.543 39.2778C113.596 39.1837 113.647 39.0928 113.697 39.0101C113.959 38.5801 114.142 38.0941 114.276 37.607C114.332 37.406 114.399 37.2013 114.466 36.994C114.643 36.4511 114.826 35.8909 114.826 35.3342C114.826 35.0992 114.849 34.8614 114.872 34.6212C114.901 34.3157 114.93 34.0063 114.914 33.6939C114.892 33.2736 113.985 33.2492 113.678 33.2492C113.603 33.443 113.557 33.6579 113.511 33.871Z" fill="#164125"/>
<path fill-rule="evenodd" clip-rule="evenodd" d="M115.671 23.1312C114.724 21.5627 113.223 19.077 112.771 17.0415C112.317 14.9943 112.157 12.6241 112.239 10.4916C112.324 8.29719 114.492 5.40361 116.252 4.22966C116.698 3.93169 117.084 3.51891 117.468 3.10792C117.936 2.60778 118.401 2.1103 118.97 1.82563C119.4 1.61026 119.848 1.41951 120.293 1.22997C120.863 0.987127 121.428 0.74625 121.947 0.458068C122.367 0.22415 124.27 -0.085605 123.759 0.198951C123.285 0.462146 123.056 0.874147 122.826 1.28668C122.669 1.56815 122.512 1.84988 122.277 2.08474C121.578 2.78452 121.336 3.98976 121.093 5.19915C120.87 6.313 120.645 7.43036 120.063 8.15959C119.483 8.88507 119.485 10.1344 119.487 11.0608C119.487 11.112 119.487 11.1623 119.487 11.2114C119.487 11.2587 119.482 11.3337 119.476 11.4241C119.449 11.7952 119.405 12.4278 119.631 12.4926C119.854 12.5563 120.954 12.6171 121.026 12.363C121.799 9.65667 122.912 6.64562 125.326 5.10777C126.417 4.41286 127.628 4.04113 128.827 3.67307C129.614 3.43133 130.396 3.19118 131.136 2.86209C132.026 2.46611 133.383 2.40144 134.372 2.40144C135.142 2.40144 135.768 2.84601 136.393 3.28907C136.706 3.5114 137.019 3.73335 137.349 3.89856C138.283 4.36595 139.049 5.04433 139.809 5.71755C140.472 6.30508 141.131 6.88868 141.893 7.32466C143.081 8.00401 141.485 7.91987 140.453 7.86544C140.185 7.85137 139.956 7.83927 139.822 7.84289C137.902 7.89485 136.317 8.62884 134.904 9.78627C134.148 10.4056 133.421 11.0508 132.692 11.6972C132.135 12.1908 131.578 12.6851 131.007 13.1692C130.791 13.3521 130.586 13.5855 130.378 13.8224C130.053 14.1933 129.72 14.573 129.324 14.7815C129.207 14.8432 129.084 14.9029 128.96 14.9633C128.558 15.1591 128.139 15.363 127.828 15.674C127.653 15.85 127.476 16.0044 127.306 16.1519C126.714 16.6683 126.218 17.1003 126.218 18.078C126.218 18.1027 126.2 18.165 126.178 18.2432C126.094 18.534 125.948 19.0454 126.419 18.6682C126.619 18.5078 126.862 18.4084 127.116 18.3049C127.353 18.2078 127.6 18.1069 127.828 17.9484C128.475 17.5008 129.191 17.1609 129.908 16.8207C130.523 16.5287 131.139 16.2364 131.711 15.8755C132.469 15.398 133.195 14.9029 133.921 14.4085C134.54 13.9862 135.159 13.5644 135.796 13.1548C136.554 12.6667 137.396 12.3719 138.242 12.0753C138.813 11.8753 139.386 11.6744 139.937 11.4129C140.178 11.2989 140.417 11.1803 140.657 11.0615C141.63 10.5802 142.608 10.0959 143.677 9.90143C143.814 9.87639 143.976 9.83418 144.147 9.78923C144.915 9.58864 145.891 9.33336 145.891 10.3045L145.891 10.3713C145.891 11.5627 145.891 12.4487 146.351 13.5435C147.214 15.5948 148.152 17.2466 149.904 18.6106C150.303 18.9219 151.816 20.4614 151.816 20.9283C151.816 21.2799 150.953 20.9411 150.587 20.7973C150.511 20.7678 150.457 20.7465 150.436 20.7411C149.111 20.4096 147.769 20.2805 146.409 20.2805C146.323 20.2805 146.237 20.2805 146.151 20.2805C142.5 20.2797 139.077 20.2791 135.594 21.5761C134.709 21.9058 133.854 22.2903 133.02 22.665C132.823 22.7539 132.626 22.8423 132.43 22.9292C132.232 23.0174 131.969 23.1135 131.68 23.2187C130.9 23.503 129.937 23.8542 129.583 24.2968C129.152 24.8363 130.834 24.751 131.763 24.704C131.962 24.6938 132.127 24.6855 132.229 24.6855C133.401 24.6855 134.5 24.4735 135.609 24.2595C136.261 24.1337 136.917 24.0072 137.593 23.9225C140.349 23.5777 143.072 23.3899 145.891 23.3899C147.657 23.3899 149.8 24.5583 151.62 25.5515C152.117 25.8224 152.59 26.0802 153.024 26.2978C153.179 26.3751 153.352 26.4578 153.537 26.546C154.569 27.0376 155.964 27.7024 156.447 28.5722C156.82 29.2442 156.997 29.9192 157.177 30.6012C157.283 31.0066 157.391 31.4145 157.54 31.8256C157.77 32.458 157.883 33.137 157.995 33.8099C158.119 34.5519 158.242 35.2864 158.518 35.9427C158.634 36.2193 158.63 36.7356 158.626 37.2816C158.619 38.0674 158.612 38.9145 158.964 39.196C159.517 39.6388 158.622 39.358 158.317 39.0521C158.26 38.9959 158.205 38.9403 158.15 38.8852C157.632 38.3627 157.163 37.8907 156.49 37.5118C154.936 36.6369 153.182 35.8495 151.534 35.1097C151.339 35.022 151.145 34.935 150.953 34.8486C149.549 34.216 148.021 33.9828 146.488 33.7488C144.774 33.4872 143.053 33.2245 141.491 32.4014C139.303 31.249 137.592 30.7772 135.264 31.7968C133.824 32.427 134.341 32.5887 135.141 32.8388C135.435 32.9309 135.767 33.035 136.055 33.1787C136.625 33.4643 137.172 33.8131 137.722 34.1635C138.277 34.517 138.834 34.8721 139.42 35.1653C141.781 36.3473 145.404 37.2887 148.02 37.3822C150.314 37.4642 153.001 39.0675 155.074 40.3045C155.3 40.4392 155.518 40.5696 155.728 40.6931C159.936 43.171 158.465 47.8534 156.706 51.3745C156.677 51.4323 156.632 51.5276 156.576 51.6479C156.22 52.4091 155.397 54.1678 155.153 53.7065C154.505 52.4825 153.509 51.4857 152.531 50.5069L152.531 50.5069L152.492 50.4676C149.998 47.9714 147.136 45.7189 144.065 43.9897C143.956 43.9286 143.846 43.8661 143.733 43.8027C141.325 42.4433 138.045 40.592 135.335 40.4916C135.218 40.4872 135.043 40.473 134.835 40.4559C133.944 40.3833 132.432 40.2598 132.057 40.6356C131.277 41.4164 134.359 43.7171 134.962 44.1192C136.204 44.9482 137.286 45.6384 138.643 46.2497C139.212 46.5061 139.86 46.6209 140.509 46.736C141.262 46.8693 142.017 47.0031 142.655 47.3582C143.294 47.7131 143.935 48.0603 144.578 48.4079C146.238 49.3062 147.901 50.2062 149.515 51.2449C149.556 51.271 149.597 51.2976 149.639 51.3247C150.372 51.7953 151.323 52.4056 151.845 53.0588C152.112 53.3925 153.757 54.4316 154.175 54.4839C156.92 54.8274 157.022 57.5605 157.022 59.7238C157.022 59.9266 157.024 60.1298 157.026 60.3329C157.036 61.5256 157.046 62.7203 156.706 63.8697C156.695 63.9052 156.684 63.9426 156.673 63.9816C156.426 64.8187 155.951 66.4321 155.34 66.9215C155.269 66.9783 155.085 67.2217 154.852 67.5303C154.289 68.2781 153.436 69.4089 153.197 69.196C153.096 69.1066 153.046 68.8847 152.992 68.6456C152.934 68.3885 152.871 68.1116 152.737 67.958C152.572 67.7697 152.425 67.5633 152.278 67.3567C152.032 67.0118 151.785 66.6663 151.457 66.4033C150.629 65.7402 149.917 64.7799 149.22 63.8399C148.807 63.2834 148.4 62.7339 147.976 62.2574C146.955 61.1069 145.706 59.7072 144.338 58.9465C143.903 58.7047 143.445 58.4691 142.981 58.2301C141.792 57.618 140.56 56.9839 139.564 56.1682C139.508 56.1224 139.446 56.0712 139.379 56.0161C138.719 55.4685 137.583 54.5257 136.831 54.4839C136.788 54.4815 136.732 54.4774 136.667 54.4725C135.976 54.4212 134.189 54.2886 134.818 55.2612C135.007 55.5533 135.549 55.7246 136.079 55.8923C136.488 56.0213 136.89 56.1483 137.119 56.3265C137.576 56.6826 138.006 57.101 138.437 57.5216C139.181 58.2465 139.932 58.9778 140.843 59.4071C141.168 59.5599 141.502 59.6972 141.837 59.8344C142.336 60.0392 142.836 60.2441 143.303 60.5012C143.879 60.8183 144.339 61.3503 144.799 61.8812C145.164 62.3024 145.528 62.7229 145.949 63.0348C146.924 63.7577 147.751 64.8366 148.508 65.8248C148.625 65.9771 148.74 66.1273 148.854 66.2737C149.13 66.6295 149.446 66.9625 149.763 67.2975C150.085 67.6366 150.408 67.9777 150.695 68.3466C150.868 68.5703 151.143 68.8438 151.441 69.1395C152.077 69.7715 152.814 70.5046 152.88 71.0674C152.912 71.3369 152.939 71.4538 152.895 71.5289C152.839 71.6252 152.665 71.6526 152.233 71.8447C151.643 72.1073 151.313 72.5046 150.958 72.9312C150.83 73.0851 150.698 73.2429 150.551 73.3994C150.305 73.66 150.029 73.8891 149.752 74.1185C149.393 74.4167 149.033 74.7152 148.739 75.0837C148.083 75.9037 147.363 76.2716 146.927 75.0693C146.814 74.7602 146.747 74.4776 146.683 74.2068C146.571 73.7359 146.468 73.3005 146.15 72.8236C145.991 72.5852 145.823 72.3415 145.655 72.0974C145.353 71.6597 145.05 71.2206 144.798 70.8083C144.03 69.55 142.175 68.2911 140.843 67.6988C139.777 67.2246 138.409 67.0897 139.736 68.4186C140.188 68.8711 140.501 69.4737 140.811 70.0703C140.987 70.4094 141.162 70.7465 141.361 71.053C141.61 71.4355 141.952 71.7049 142.297 71.9765C142.615 72.2269 142.936 72.4792 143.188 72.8236C143.351 73.0476 143.513 73.2637 143.672 73.4767C144.184 74.16 144.671 74.8109 145.115 75.5875C145.231 75.7912 145.33 76.0069 145.43 76.224C145.635 76.6704 145.843 77.1227 146.208 77.4877C146.341 77.6212 145.593 78.1355 144.942 78.5825C144.54 78.8595 144.174 79.1107 144.079 79.2295C144.002 79.3257 143.933 79.4143 143.87 79.4948C143.278 80.2529 143.246 80.2935 142.655 79.2295C142.431 78.8257 142.188 78.4436 141.945 78.062C141.625 77.5598 141.305 77.0584 141.03 76.5088C140.874 76.1953 140.683 75.8718 140.487 75.5411C140.03 74.7684 139.551 73.9563 139.434 73.1403C139.354 72.5789 138.944 72.0979 138.526 71.6082C138.186 71.2097 137.841 70.8055 137.665 70.3476C137.419 69.7069 137.206 69.1309 137.003 68.5818C136.556 67.3718 136.157 66.2925 135.557 64.9398C135.161 64.0484 135.042 62.9217 134.923 61.7876C134.788 60.5049 134.652 59.2128 134.113 58.2411C133.793 57.6653 133.507 57.0911 133.225 56.5248C132.498 55.0664 131.797 53.66 130.618 52.411C129.124 50.8268 128.03 48.8477 127.196 46.9695C126.263 44.868 125.466 43.4751 124.011 41.6019C123.641 41.1264 121.897 38.0455 121.861 37.4256C121.819 36.7148 121.345 35.7801 120.938 34.9791C120.802 34.7105 120.673 34.457 120.571 34.232C120.212 33.4416 119.815 32.8025 119.426 32.1761C118.865 31.2742 118.321 30.3984 117.93 29.1345C117.663 28.8376 117.473 28.3273 117.285 27.8252C117.078 27.2731 116.875 26.7309 116.579 26.4937C116.36 26.3183 116.383 25.8701 116.408 25.3837C116.427 25.0237 116.447 24.6427 116.37 24.3359C116.236 24.0672 115.983 23.6493 115.671 23.1312ZM120.262 27.3311C119.964 27.7696 119.957 27.8244 119.957 28.4109C120.012 28.4932 120.108 28.526 120.208 28.5596C120.283 28.5852 120.36 28.6112 120.42 28.6597C120.501 28.7253 120.757 28.7035 120.932 28.6886C120.99 28.6838 121.038 28.6796 121.069 28.6796C121.569 28.6796 122.203 28.6126 122.701 28.5005C123.969 28.2155 125.976 27.6341 125.976 26.0423C125.976 24.6423 123.277 25.2447 122.524 25.4352C121.871 25.6004 121.422 25.8789 120.975 26.4006C120.725 26.6927 120.477 27.0156 120.262 27.3311ZM127.765 31.1283C127.349 31.0717 126.852 31.0271 126.432 31.0419C126.213 31.0496 125.997 31.1107 125.781 31.1717L125.781 31.1717C125.552 31.2366 125.323 31.3013 125.093 31.3013C124.672 31.3013 123.81 31.7562 123.526 32.0362C123.064 32.492 123.005 33.0873 123.034 33.7029C123.086 34.7895 125.06 34.8551 125.77 34.8461M127.765 31.1283L129.255 31.1283L127.765 31.1283ZM129.255 31.1283C129.678 31.1283 130.593 31.309 130.783 31.7384L129.255 31.1283ZM130.783 31.7384C131.201 32.6802 130.298 33.1229 129.602 33.4645L130.783 31.7384ZM129.602 33.4645L129.518 33.506L129.602 33.4645ZM129.518 33.506C128.932 33.7949 128.293 34.0234 127.678 34.2409L129.518 33.506ZM127.678 34.2409C127.485 34.309 127.301 34.3891 127.12 34.4685L127.678 34.2409ZM127.605 37.7033C128.639 37.6539 129.77 37.5999 130.605 38.0703C131.098 38.3478 131.135 38.7549 131.135 39.2986C131.135 39.9876 129.69 40.4153 129.192 40.507C128.527 40.6298 127.744 40.6901 127.093 40.4872C126.806 40.3974 126.108 39.9656 126.019 39.6517C125.803 38.8823 125.611 37.7322 126.721 37.7322C127 37.7322 127.298 37.7179 127.605 37.7033L127.605 37.7033Z" fill="white"/>
<path d="M115.107 24.2817C114.28 24.5075 114.473 24.9777 114.8 25.7556C115.169 26.4926 118.915 33.1869 120.082 35.6436C121.249 38.1002 125.057 45.0401 126.039 47.0668C127.022 49.0936 128.794 51.2601 130.277 53.8839C132.155 57.207 132.954 57.4668 134.023 60.0869C134.986 62.4459 134.715 63.8957 135.374 65.2459C135.991 66.5086 136.849 69.5449 137.279 69.6063C137.708 69.6678 135.804 65.5529 135.682 64.4474C135.559 63.342 135.252 59.8865 132.979 55.665C131.69 53.2698 130.584 52.2258 129.294 50.3219C128.005 48.418 125.575 43.6692 123.644 39.8812C121.959 36.5737 121.249 34.0467 119.714 31.0373C118.178 28.028 117.901 27.3131 116.397 25.1415C115.844 24.3431 115.783 24.0975 115.107 24.2817Z" fill="#53A3A0"/>
<path d="M114.038 27.1972C112.332 26.4387 109.4 26.9992 107.558 26.9992C107.396 26.9992 108.133 27.1998 108.242 27.2872C108.443 27.4474 109.217 27.7774 109.502 27.8092C109.65 27.8256 110.477 28.2157 110.438 28.2592C110.289 28.4269 109.632 28.6609 110.087 29.0152C110.766 29.5427 111.723 29.1561 112.418 29.4651C113.704 30.0366 113.171 30.7214 112.913 31.6251C112.706 32.3492 112.418 32.8813 112.418 33.7041C112.418 33.7512 112.633 32.9573 112.679 32.9211C113.023 32.6534 113.761 32.3451 114.2 32.3451C115.226 32.3451 115.947 32.5816 116.873 32.9931C117.303 33.1839 117.776 34.0492 118.007 34.4601C118.383 35.1287 118.885 35.7766 119.51 36.233C119.897 36.5159 120.504 36.9045 119.87 36.233C119.535 35.8785 119.261 35.3639 119.024 34.9371C118.779 34.4967 118.474 33.0747 118.169 32.8311C117.874 32.5953 117.866 31.9045 117.622 31.5908C117.363 31.2586 117.317 30.8126 116.954 30.5991C116.338 30.2365 115.235 29.7693 115.739 28.8622C116.295 27.861 114.848 29.2335 114.848 28.7002C114.848 27.8237 114.841 27.554 114.038 27.1972Z" fill="#003D38"/>
<path d="M93.2218 50.0738C91.4115 52.2863 93.7691 55.4038 94.5988 57.4536C94.1996 57.6532 95.9052 58.832 96.1828 59.1096C96.5817 59.5085 96.8782 59.9275 97.1907 60.4056C97.3769 60.6904 98.0122 61.4628 97.6619 60.7622C97.1573 59.753 97.0804 58.7555 96.7407 57.6516C96.7044 57.5335 96.6825 56.4139 96.5788 56.5176C96.5491 56.5473 96.1539 57.6722 96.0658 57.3636C95.6783 56.0074 95.4088 54.8823 95.4088 53.4757C95.4088 53.0032 95.4215 52.1172 95.6518 51.7027C95.7107 51.5967 95.9896 50.514 95.7688 50.6857C95.4164 50.9598 94.8077 52.6837 94.4728 52.6837C94.3903 52.6837 94.7657 51.1029 94.7968 51.0097C95.0758 50.1727 95.2896 49.9589 95.9767 49.2718L95.9848 49.2638L97.9197 47.3288C98.4721 46.7764 98.5506 46.197 98.9007 45.5468C99.5168 44.4027 99.9028 42.9157 100.836 41.9829C101.25 41.5685 101.425 40.9253 101.817 40.5339C102.037 40.3133 102.602 40.001 101.97 40.2819C100.788 40.807 100.124 41.9625 99.0987 42.7119C97.8589 43.6179 97.5864 45.3855 96.5788 46.4738C95.9656 47.1361 95.4369 47.7548 94.6708 48.3458C93.9831 48.8763 93.7709 49.4026 93.2218 50.0738Z" fill="white"/>
<path d="M99.4939 51.2629C98.1807 52.6286 97.8379 55.6806 97.8379 57.6168C98.0767 57.2586 98.0734 57.0962 98.3982 56.7714C98.6354 56.5341 98.7596 56.071 98.8189 55.7449C98.8985 55.307 99.5041 54.8051 99.7819 54.4579C100.008 54.1758 100.126 53.8072 100.349 53.4859C100.66 53.0364 100.469 52.6614 100.601 52.1989C100.699 51.8552 101.078 51.5912 101.078 51.2179C101.078 50.4448 101.24 49.6016 101.24 48.788V47.735C101.24 47.646 100.927 48.3311 100.916 48.545C100.861 49.5817 100.19 50.5394 99.4939 51.2629Z" fill="#003D38"/>
<path d="M102.944 57.4459C103.333 56.2772 104.319 56.0851 104.319 54.8618C104.319 54.2981 104.742 55.9215 104.805 56.4818C104.88 57.1645 104.725 57.9111 104.725 58.6128C104.725 60.1492 105.352 61.0196 104.409 62.2327C103.342 63.6035 102.866 65.1466 104.877 65.8776C105.896 66.2485 106.821 67.1142 107.082 68.1546C107.191 68.5941 108.124 71.4368 107.073 70.3236C106.17 69.368 105.022 69.2428 104.049 68.3779C103.673 68.0437 102.944 67.4566 102.375 67.0116C101.654 66.4126 100.303 64.9701 100.303 64.5701C100.303 63.5549 100.784 64.6375 101.313 63.7717C101.51 63.4485 101.106 62.4971 101.285 62.1749C101.494 61.799 101.813 60.8443 101.9 60.4553C102.137 59.3889 102.589 58.51 102.944 57.4459Z" fill="#66A9A0"/>
<path d="M113.753 54.6215C114.344 53.3739 115.104 51.9806 115.657 50.6909C116.068 51.6186 114.849 55.2635 114.849 56.0326C114.849 57.1663 115.078 58.5299 114.723 59.5965C114.363 60.6766 114.039 61.4314 114.039 62.6024C114.039 63.1662 113.877 63.6968 113.877 64.2674C113.877 64.9 114.015 65.7185 113.841 66.3284C113.292 68.2489 113.827 69.882 115.173 71.3863C116.093 72.4141 116.307 73.913 116.307 75.2382C116.307 76.27 115.715 74.6471 115.533 74.3023C115.206 73.6842 114.163 73.3135 113.553 73.0423C112.959 72.7785 113.124 71.8309 112.869 71.2243C112.505 70.3606 112.27 69.5297 112.059 68.6323C111.947 68.1562 111.586 67.7758 111.366 67.3364C111.018 66.6397 110.961 66.1252 110.961 65.3564C110.961 64.1146 111.417 63.0328 111.807 61.8645C111.991 61.3121 112.3 60.8356 112.5 60.2805C112.645 59.8764 112.793 59.0733 113.067 58.7505C113.722 57.9798 113.301 55.5766 113.753 54.6215Z" fill="white"/>
<path d="M122.138 67.8218C122.212 66.4265 122.138 65.0072 122.138 63.6099C122.138 63.6081 122.313 64.2303 122.462 64.4919C122.59 64.7157 122.893 64.9229 123.074 65.1038C123.639 65.6691 123.701 66.429 124.082 67.0478C125.22 68.8968 125.702 71.0574 125.702 73.2037C125.702 74.2763 125.728 74.8134 126.512 75.5977C127.191 76.2766 127.899 77.2419 128.654 77.7936C129.262 78.2378 131.21 79.4268 131.21 80.1336C131.21 80.4142 131.022 80.2927 130.642 80.2927C130.261 80.2927 130.008 80.1404 129.659 79.9856C129.017 79.6999 128.384 79.8967 127.755 79.6171C127.081 79.3172 126.03 79.2278 125.299 79.1872C123.096 79.0648 122.836 77.6181 122.502 75.765L122.498 75.7417C122.365 75.0031 121.855 74.2233 121.814 73.4917C121.788 73.0248 121.49 72.6667 121.49 72.1957C121.49 71.6215 121.632 71.09 121.652 70.5398C121.687 69.59 122.091 68.7178 122.138 67.8218Z" fill="#003D38"/>
<path d="M123.954 47.5731C123.484 46.5162 123.991 45.0508 123.761 43.8742C123.321 42.9945 122.954 42.2241 122.472 41.3561C122.224 40.91 121.643 39.6493 121.612 39.1451C121.588 38.7656 121.457 40.8243 121.612 41.1718C122.008 42.0644 121.164 43.4442 121.164 44.4141C121.164 45.1583 121.001 45.7159 120.84 46.4391C120.685 47.1379 120.013 47.7746 119.706 48.464C119.02 50.0069 118.41 51.8416 118.41 53.531V54.7009C118.41 54.0516 119.026 53.8131 119.058 53.243C119.113 52.247 122.736 53.5144 123.261 53.81C123.427 53.9031 124.08 55.047 124.08 54.1339C124.08 53.3288 124.491 53.5953 125.133 53.738C125.674 53.8582 126.578 54.396 126.87 54.8629C127.31 55.5673 127.32 54.7577 127.32 54.3769C127.32 52.5847 128.852 55.2574 129.012 55.3489C129.588 55.6779 130.172 56.4011 130.758 56.8069C130.88 56.8915 132.132 57.6587 131.73 57.2569C131.033 56.5595 130.257 55.7531 129.786 54.8629C129.322 53.9868 128.819 52.8209 128.202 52.028C127.588 51.239 126.807 50.624 126.105 49.922C125.392 49.2085 124.379 48.5288 123.954 47.5731Z" fill="#003D38"/>
<path d="M129.59 44.6564C128.648 44.199 127.798 43.5975 126.836 43.1984C126.342 43.3821 126.054 43.0862 125.63 43.2074C125.276 43.3083 126.509 44.2714 126.674 44.3684C127.124 44.6333 127.496 45.4785 127.889 45.8713C127.996 45.9785 129.12 47.1538 129.068 47.2123C128.832 47.4776 127.684 46.9803 128.366 47.6623C128.974 48.271 129.617 48.5127 130.4 48.9043C130.691 49.0499 131.923 49.622 132.011 49.9303C132.152 50.4265 131.33 50.4205 130.985 50.4973C130.348 50.6388 131.981 51.1528 132.02 51.1722C132.606 51.4653 133.053 52.0274 133.559 52.4322C133.688 52.5354 133.802 52.9934 133.802 53.1612C133.802 53.4787 134.195 53.4562 134.45 53.5662C135.279 53.9247 135.736 53.5772 136.475 53.4132C138.299 53.0079 140.118 51.9728 142.063 52.5132C143.747 52.9808 145.344 54.3549 147.085 54.5382C147.457 54.5773 148.035 55.1487 147.886 54.6282C147.88 54.6062 147.279 54.3324 147.661 54.2232C147.957 54.1388 148.279 54.229 148.543 54.3402C149.301 54.6592 150.563 55.0242 151.387 55.0242C152.501 55.0242 151.851 54.762 151.261 54.3762C150.591 53.9381 149.983 53.3907 149.272 53.0082C148.66 52.6782 147.849 52.429 147.337 51.9462C146.388 51.0495 144.857 50.8519 143.926 49.9213C143.431 49.4263 142.248 49.1667 141.577 48.9943C140.835 48.8033 140.142 48.6702 139.4 48.5353C137.972 48.2758 136.211 47.726 135.188 46.6093C134.311 45.6534 132.651 46.1231 131.615 45.5473C130.998 45.2045 130.241 44.9726 129.59 44.6564Z" fill="#D9E9CE"/>
<path d="M118.736 27.6474C118.736 26.2662 118.25 25.0422 118.25 23.6334C118.25 23.1848 117.469 23.0618 117.045 22.9404C116.602 22.814 116.255 22.1783 116.955 22.1394C117.672 22.0996 116.268 21.1612 116.064 20.8435C115.534 20.0204 115.195 19.0397 115.173 18.0535C115.124 15.9705 114.21 14.3883 113.355 12.5816C112.21 10.1652 115.896 8.13453 116.145 5.77771C116.242 4.85305 117.505 2.42776 118.61 3.31175C118.823 3.48211 119.823 3.50974 120.113 3.50974C120.84 3.50974 119.53 3.89189 119.384 4.32873C119.101 5.18027 118.791 5.98605 118.472 6.81414L118.448 6.87569C118.237 7.42629 118.223 7.55826 118.378 7.49978C118.401 7.47709 118.425 7.45504 118.448 7.43368C118.662 7.24175 119.852 6.66995 118.979 7.15468C118.696 7.3121 118.492 7.45697 118.378 7.49978C117.931 7.93945 117.598 8.61865 117.197 9.10765C116.175 10.3579 115.95 11.4573 117.35 12.2576C118.134 12.7053 118.406 13.9381 119.15 14.3636C119.353 14.479 119.68 14.655 119.834 14.3636C120.028 13.9976 119.81 14.3345 120.032 14.7236C120.386 15.3426 120.518 16.0063 120.518 16.7035C120.518 17.3307 120.049 18.1126 119.906 18.7375C119.751 19.4188 119.737 20.6345 119.951 21.3205C120.135 21.9081 120.649 22.6806 120.68 23.2734C120.707 23.7775 120.13 24.3928 119.951 24.8934C119.738 25.4901 119.445 26.0323 119.258 26.6394C119.125 27.0715 119.148 27.4416 118.736 27.6474Z" fill="#B8D6B0"/>
<path d="M121.78 18.0536C121.38 19.4027 121.168 20.3855 121.168 21.8155C121.168 20.8927 121.511 20.7632 122.221 20.1955C122.868 19.6778 123.247 18.5312 123.688 17.8376C124.994 15.7848 126.752 14.0346 128.26 12.0957C129.182 10.91 130.269 9.54427 131.455 8.62174C132.334 7.93804 131.429 8.37386 130.816 8.19874C130.515 8.11279 132.187 4.85008 132.31 4.5178C132.465 4.09961 132.766 3.76504 133.156 3.54582C133.322 3.45257 132.525 3.74993 132.382 3.79781C131.33 4.14832 130.287 4.76047 129.196 4.9588C128.602 5.06675 128.201 5.12602 127.639 5.45379C127.11 5.76246 126.44 5.78179 125.947 6.11078C125.082 6.68739 124.783 7.48045 124.894 8.36974C124.946 8.78504 125.225 8.69374 124.696 8.69374C123.987 8.69374 123.202 9.13486 122.752 9.62972C122.207 10.2297 121.91 12.3725 121.825 13.2207C121.748 13.9925 121.816 14.8023 121.816 15.5786C121.816 16.3288 121.994 17.3298 121.78 18.0536Z" fill="#B8D6B0"/>
<path d="M124.928 22.1384C124.076 23.1734 122.281 24.7494 121.328 25.7023C121.859 25.4484 122.513 24.8 122.867 24.7213C123.69 24.5385 124.346 24.7303 125.18 24.7303C125.858 24.7303 127.418 24.9408 127.88 24.4783C128.527 23.8317 129.262 23.4487 130.04 22.9484C131.353 22.1046 132.737 21.4169 134.198 20.8514C134.344 20.7949 136.283 20.3177 136.196 20.2304C135.654 19.6884 132.717 20.8009 134.855 19.3754C136.14 18.5186 137.045 17.4155 138.536 16.9185C139.411 16.6268 137.658 16.7925 137.285 16.7925C136.483 16.7925 135.728 16.9105 134.936 16.9545C134.36 16.9864 133.434 17.1178 132.902 17.3594C132.062 17.7411 131.13 17.9377 130.274 18.2864C129.767 18.4929 129.252 19.1378 128.789 19.4564C128.343 19.7629 127.883 19.9996 127.475 20.3564C126.695 21.0393 125.592 21.332 124.928 22.1384Z" fill="#B8D6B0"/>
<path d="M124.53 35.752C124.528 35.7519 124.525 35.7518 124.522 35.7518C124.52 35.8478 124.535 36.0425 124.62 36.067C124.793 36.1164 124.954 36.1855 125.106 36.229C125.506 36.3432 125.985 36.1328 126.384 36.247C126.768 36.3565 125.6 36.9426 125.538 37.0479C125.336 37.3916 124.978 37.4204 124.728 37.7319C124.267 38.3089 124.92 39.7984 125.025 40.3779C125.115 40.8684 125.324 41.1794 125.538 41.5839C125.74 41.9637 125.583 42.5467 125.142 42.1059C124.814 41.7775 124.854 41.3226 124.854 40.8639C124.854 40.4988 124.53 40.1228 124.53 39.7209C124.53 38.8954 123.394 37.7478 123.108 36.9219C122.832 36.1246 122.449 35.6612 121.938 35.023C121.786 34.8325 122.731 35.187 122.874 35.302C123.306 35.647 123.991 35.7384 124.522 35.7518C124.523 35.692 124.53 35.6705 124.53 35.752Z" fill="#B8D6B0"/>
<path fill-rule="evenodd" clip-rule="evenodd" d="M127.137 83.3002C126.791 82.2213 126.015 79.9294 125.564 79.028C124.993 77.8849 122.516 74.3286 119.595 72.5505C116.673 70.7724 114.387 70.2008 111.339 70.3913C108.291 70.5819 104.862 72.5505 102.448 74.2016C100.035 75.8528 96.606 78.7105 95.0183 80.8061C93.4307 82.9018 91.1445 86.8391 90.446 90.9669C91.9701 90.1837 95.5772 88.4775 97.8125 87.9187C100.607 87.2201 103.718 86.5216 107.084 86.5851C107.989 86.6021 108.807 86.6008 109.529 86.5997C111.492 86.5966 112.746 86.5946 113.117 86.9661C113.17 87.019 113.224 87.0706 113.278 87.1213L113.278 87.1213L113.278 87.1214L113.278 87.1214C113.737 87.5571 114.128 87.928 112.99 88.5537C111.746 89.2381 109.1 89.6786 107.918 89.8754L107.846 89.8873C106.703 90.0778 101.813 91.2209 100.035 91.6654C98.2571 92.11 96.0979 92.999 95.0818 93.7611C94.9097 93.8902 94.7083 94.023 94.4864 94.1693C93.399 94.8864 91.8184 95.9287 90.7635 98.4605L90.717 98.572C89.4795 101.542 88.9219 102.88 88.9219 105.891C88.9219 108.256 90.5662 112.38 91.3029 114.228L91.3029 114.228L91.3029 114.228C91.5156 114.762 91.6526 115.105 91.6526 115.162C91.6526 115.222 91.6071 115.369 91.539 115.589C91.3174 116.306 90.8568 117.795 90.954 119.544C91.081 121.83 91.9066 125.45 93.4307 127.673C93.9437 128.421 94.4136 129.075 94.8354 129.663L94.8354 129.663C95.6668 130.821 96.3117 131.72 96.733 132.563C97.368 133.833 98.2571 135.23 99.2732 135.992C99.1885 136.436 99.108 137.503 99.4637 138.214C99.9082 139.104 100.543 139.866 101.432 140.564L101.505 140.621C102.383 141.311 103.48 142.172 104.036 142.914C104.257 143.208 104.43 143.502 104.593 143.778C104.851 144.217 105.082 144.61 105.433 144.882C106.005 145.327 107.275 146.28 108.164 146.597C108.324 146.654 108.508 146.711 108.707 146.773C109.613 147.053 110.818 147.426 111.339 148.312C111.149 147.232 110.755 144.628 110.704 142.85C110.693 142.455 110.677 142.033 110.662 141.597C110.589 139.582 110.506 137.302 110.768 136.309C111.085 135.103 112.228 132.435 112.99 131.546C113.352 131.125 114.327 129.632 115.334 128.091L115.334 128.091L115.334 128.091C116.451 126.382 117.606 124.614 118.007 124.18C118.769 123.354 119.468 122.656 120.23 123.164C120.992 123.672 121.182 124.751 120.738 125.577C120.293 126.403 117.563 131.737 116.864 133.261C116.165 134.785 113.371 141.517 113.562 144.819C113.584 145.212 113.601 145.581 113.616 145.927C113.73 148.481 113.786 149.747 115.911 150.026C118.325 150.344 120.293 150.661 122.008 151.423C123.722 152.185 125.437 152.884 127.85 153.583C128.684 153.824 129.351 154.149 129.985 154.457C131.186 155.042 132.267 155.569 134.137 155.361C133.989 154.683 134.099 153.087 135.725 152.122C136.319 151.769 136.804 151.465 137.245 151.19C138.311 150.522 139.113 150.02 140.551 149.391C141.08 149.16 141.441 148.989 141.732 148.851C142.558 148.459 142.816 148.337 144.743 147.867C147.22 147.263 148.145 145.854 148.557 145.226C148.578 145.194 148.598 145.164 148.616 145.136C148.997 144.565 149.124 142.215 148.426 139.866C147.727 137.516 147.537 135.674 147.664 133.896C147.791 132.118 147.537 128.943 145.568 126.022C144.344 124.205 143.292 123.199 142.305 122.255L142.304 122.255C141.704 121.681 141.128 121.13 140.551 120.433C140.269 120.093 139.996 119.758 139.728 119.43C138.544 117.983 137.452 116.647 136.106 115.353C134.455 113.765 134.01 112.559 134.582 111.796C135.153 111.034 135.661 110.399 136.995 111.606C138.329 112.813 141.44 115.797 142.647 117.766C143.288 118.812 143.983 120.342 144.655 121.822L144.655 121.822C145.248 123.129 145.824 124.396 146.33 125.259C146.667 125.833 147.071 126.395 147.481 126.965C148.388 128.225 149.326 129.528 149.632 131.102C149.734 131.624 149.852 132.077 149.968 132.52C150.359 134.019 150.723 135.414 150.331 139.04C151.284 138.574 153.443 137.186 154.459 135.357C155.729 133.071 157.634 127.863 157.698 125.196C157.748 123.093 157.637 122.709 157.573 122.779C158.464 121.697 160.455 118.804 161.317 115.861C162.397 112.177 162.206 108.05 160.047 104.874C157.888 101.699 155.792 99.667 152.427 97.4444C150.808 96.3756 149.439 95.762 148.235 95.2223C146.936 94.6397 145.828 94.1432 144.806 93.2531C143.67 92.2636 142.027 91.9509 140.669 91.6925C139.673 91.5031 138.832 91.3429 138.456 90.9669L138.381 90.8928C137.529 90.0425 136.918 89.4321 138.646 89.0617C140.424 88.6807 144.933 88.3632 147.029 88.7442C149.124 89.1252 153.443 90.7129 155.221 92.5545C155.405 92.7454 155.602 92.9459 155.808 93.156L155.81 93.1577L155.81 93.1586C157.591 94.9743 160.072 97.5037 161.381 100.747C161.254 100.302 161.178 99.1209 161.889 97.9524C162.657 96.6897 162.05 93.3385 161.748 91.6741C161.7 91.4133 161.661 91.1939 161.635 91.0304C161.608 90.8591 161.586 90.6866 161.563 90.5086C161.427 89.4326 161.264 88.1571 159.793 85.7595C158.423 83.5266 157.458 82.5103 156.51 81.5115L156.51 81.5111C156.272 81.2602 156.035 81.0103 155.792 80.7426C154.958 79.8203 154.215 79.5359 153.436 79.2381C153.089 79.1053 152.735 78.9698 152.363 78.774C151.368 78.6258 148.959 78.2405 147.283 77.8849C145.187 77.4404 143.091 76.8688 143.409 75.9798C143.663 75.2685 144.192 74.9637 144.425 74.9002C143.726 74.3498 141.669 73.2872 139.027 73.4396C135.725 73.6301 132.677 75.1542 130.645 78.4564C129.655 80.0651 129.343 81.2065 129.137 81.9616C128.919 82.7566 128.819 83.1232 128.168 83.1558C127.435 83.1924 127.187 83.2533 127.137 83.3002ZM93.3638 112.369C93.9142 110.888 95.6627 107.34 98.2537 105.003C99.8354 103.576 100.569 102.558 101.157 101.743L101.157 101.743C101.773 100.888 102.229 100.255 103.334 99.6049C105.493 98.3348 112.542 95.3501 114.257 95.6041C115.971 95.8581 115.146 97.0012 113.431 97.9538C112.726 98.3458 111.977 98.8992 111.19 99.4811L111.19 99.4811L111.189 99.4812L111.189 99.4812C110.064 100.313 108.859 101.204 107.589 101.764C105.43 102.717 101.746 105.003 99.0792 107.035C96.9455 108.661 94.3799 111.269 93.3638 112.369ZM105.494 120.052C103.818 122.237 101.62 128.287 100.731 131.039C101.872 128.562 104.716 124.916 106.943 122.061C108.313 120.305 109.45 118.849 109.813 118.147C110.561 116.7 113.388 114.9 115.366 113.64L115.366 113.64C115.905 113.297 116.381 112.994 116.735 112.749C118.386 111.606 120.291 108.876 119.973 107.288C119.708 105.96 118.198 106.898 115.852 108.356L115.852 108.356L115.852 108.356C115.394 108.641 114.904 108.945 114.385 109.257C112.011 110.681 109.389 114.482 107.341 117.452L107.341 117.452C106.65 118.455 106.023 119.363 105.494 120.052ZM156.933 120.497C156.552 118.549 155.282 114.096 153.25 111.86C151.73 110.189 151.074 109.222 150.398 108.225C149.944 107.556 149.481 106.873 148.741 105.954C146.899 103.668 144.804 101.445 142.898 100.112C140.993 98.7782 138.707 97.1906 137.818 97.7622C136.929 98.3337 137.247 99.4133 138.644 100.048C140.041 100.683 143.216 102.716 144.804 104.303C146.391 105.891 150.964 110.654 151.789 111.67C151.871 111.771 151.979 111.899 152.109 112.053C153.282 113.444 156.189 116.893 156.933 120.497ZM136.788 93.7486L136.787 93.7485C136.014 93.3542 135.274 92.9772 134.23 92.8411C133.86 92.7929 133.549 92.7816 133.277 92.7816C133.009 92.7816 132.578 92.846 132.907 93.2116C133.19 93.5259 133.434 93.7375 133.8 93.9724C134.159 94.2034 134.549 94.3235 134.945 94.4459L134.945 94.4459C135.059 94.4811 135.174 94.5164 135.288 94.5546C135.334 94.5699 135.415 94.6004 135.52 94.6403C136.256 94.9203 138.219 95.6662 138.219 94.9251C138.219 94.4793 137.633 94.1676 137.3 94.0055C137.125 93.9206 136.956 93.8342 136.788 93.7486ZM120.122 98.8695C119.055 99.2821 118.179 99.6206 117.278 100.342C116.79 100.732 116.259 101.371 116.259 102.032C116.259 102.14 117.067 101.9 117.424 101.793C117.505 101.769 117.563 101.752 117.582 101.748C118.059 101.638 118.509 101.559 118.998 101.519C119.946 101.442 120.951 101.093 121.674 100.461C122.091 100.096 123.112 99.0868 122.729 98.4364C122.595 98.2085 121.822 98.1779 121.309 98.395C120.884 98.5747 120.492 98.7266 120.122 98.8695L120.122 98.8695ZM121.43 114.155C120.926 114.207 119.102 115.173 118.241 116.034C118.062 116.214 117.89 116.4 117.719 116.586C117.548 116.772 117.378 116.957 117.199 117.136C117.16 117.175 117.119 117.215 117.078 117.256C116.613 117.715 116.036 118.286 116.012 118.965C116.01 119.001 116.008 119.039 116.005 119.078C115.99 119.302 115.972 119.552 116.204 119.646C116.574 119.797 116.96 119.787 117.345 119.633C118.231 119.279 118.891 118.726 119.558 118.059C119.682 117.935 119.806 117.814 119.931 117.694L119.931 117.694L119.931 117.694L119.931 117.694C120.377 117.262 120.814 116.839 121.165 116.312C121.237 116.204 121.321 116.098 121.406 115.991L121.406 115.991L121.406 115.991C121.581 115.768 121.761 115.541 121.847 115.283C122.015 114.779 121.897 114.107 121.43 114.155ZM137.627 106.268L137.628 106.269C138.089 106.574 138.422 106.918 138.817 107.334C139.118 107.652 139.307 107.964 139.53 108.33L139.532 108.333C139.69 108.595 139.804 109.519 139.472 109.703C139.163 109.874 138.71 109.653 138.433 109.511C137.624 109.095 136.961 108.443 136.33 107.797C136.266 107.733 136.193 107.662 136.114 107.587L136.114 107.587C135.736 107.226 135.245 106.757 135.245 106.282C135.245 104.693 136.754 105.691 137.627 106.268ZM137.233 125.466C136.555 124.629 136.089 124.054 134.772 123.471C134.372 123.293 133.778 123.233 133.555 123.716C133.323 124.215 133.629 124.863 133.872 125.378L133.872 125.378L133.872 125.379C133.929 125.499 133.982 125.612 134.025 125.713C134.366 126.539 134.746 127.343 135.149 128.141C136.012 129.851 136.851 131.473 138.04 132.984C138.401 133.442 138.758 133.89 139.205 134.268C139.28 134.331 139.347 134.408 139.411 134.48C139.609 134.703 139.77 134.886 140.025 134.526C140.375 134.031 140.185 133.008 140.005 132.481C139.915 132.215 139.845 131.939 139.775 131.663L139.775 131.663C139.714 131.418 139.652 131.173 139.575 130.933C139.408 130.412 139.272 129.861 139.158 129.326L139.117 129.132C139.031 128.719 138.971 128.435 138.832 127.988C138.751 127.726 138.672 127.579 138.568 127.385C138.532 127.319 138.494 127.247 138.451 127.163C138.211 126.69 138.061 126.459 137.689 126.02C137.522 125.823 137.373 125.639 137.234 125.467L137.233 125.467L137.233 125.466ZM130.121 114.16C131.104 114.05 131.519 114.573 132.077 115.276L132.077 115.276C132.27 115.519 132.479 115.783 132.736 116.05C132.884 116.205 133.173 116.591 133.371 116.939C133.566 117.283 133.626 117.472 133.724 117.785C133.918 118.407 133.777 119.643 132.86 119.184C131.523 118.516 130.26 116.96 129.79 115.552C129.658 115.155 129.481 114.231 130.121 114.16Z" fill="#276952"/>
<path d="M126.893 84.2406C127.045 82.818 127.295 82.3777 127.401 82.3354C128.036 81.0653 128.353 83.8595 128.226 85.2566C128.099 86.6537 127.782 94.2743 127.464 95.9254C127.147 97.5765 127.782 110.214 127.782 113.072C127.782 115.929 129.179 128.44 129.116 130.345C129.065 131.869 129.602 136.611 129.878 138.791C129.581 137.69 128.989 135.159 128.989 133.838C128.989 132.187 127.21 114.977 126.893 111.675C126.575 108.372 126.258 100.117 126.258 97.4495C126.258 94.7823 126.702 86.0187 126.893 84.2406Z" fill="#589B99"/>
<path d="M116.129 72.0203L116.003 72.035C113.639 72.3112 111.397 72.5731 109.169 73.3751C108.443 73.6364 107.468 73.9383 106.843 74.4073C105.883 75.1269 104.728 75.6141 103.685 76.2101C102.786 76.7237 101.921 77.2583 100.997 77.7333C100.466 78.0067 99.8009 78.2669 99.3557 78.6652C99.0098 78.9747 98.4978 79.2732 98.0941 79.5039C97.8517 79.6424 97.5902 79.7606 97.3845 79.9555C97.2626 80.071 97.1408 80.2039 96.9837 80.362C96.8601 80.4864 96.8567 80.489 96.6662 80.6795C96.6328 80.7547 96.4835 80.8038 96.4307 80.8737C96.4084 80.9097 96.4015 80.9211 96.4239 80.8838C96.426 80.8804 96.4282 80.877 96.4307 80.8737C96.477 80.7994 96.5893 80.6203 96.6461 80.5505C97.2133 79.8536 97.9547 78.9574 98.6983 78.4569C99.6419 77.8218 100.024 77.325 100.921 76.6152C101.292 76.3217 103.501 74.1455 103.842 73.821C103.207 74.7736 102.991 75.3945 103.271 75.1546C103.949 74.5732 104.73 74.0462 105.563 73.6833C106.117 73.4421 106.651 73.1536 107.223 72.9557C107.738 72.7772 108.28 72.4591 108.811 72.3572C109.207 72.281 109.618 72.0383 110.015 72.0203C110.514 71.9976 111.093 71.9006 111.581 71.7945C112.272 71.6443 113.031 71.6977 113.739 71.6977C114.203 71.6977 114.709 71.8267 115.162 71.8267C115.489 71.8267 115.793 72.0203 116.129 72.0203Z" fill="#2C6866"/>
<path d="M118.868 86.1488C118.358 86.1488 117.864 86.0784 117.356 86.0198C117.541 86.297 117.974 86.2048 118.209 86.3925C118.452 86.5868 118.897 86.4969 119.162 86.6147C119.448 86.7417 119.926 86.7984 119.793 87.2312C119.686 87.578 119.368 87.8138 119.13 88.052C118.83 88.3516 118.449 88.6532 118.062 88.8226C117.524 89.058 115.801 89.3745 116.388 89.3745C117.659 89.3745 118.999 89.1442 120.191 88.6971C121.01 88.3898 121.767 87.7862 122.42 87.2097C123.038 86.6649 123.836 86.5899 124.614 86.4069C124.723 86.3811 125.183 86.3169 125.223 86.1775C125.262 86.0422 125.387 85.7256 125.194 85.6399C125.103 85.5991 124.862 85.7617 124.743 85.7617C124.563 85.7617 124.376 85.8806 124.194 85.8907C123.145 85.949 122.086 86.5923 120.997 86.3746C120.504 86.276 120.012 86.1641 119.517 86.0879C119.328 86.0587 119.073 86.1488 118.868 86.1488Z" fill="#012724"/>
<path d="M113.189 89.31C113.957 89.003 114.323 88.6521 114.58 87.8262C114.58 88.3986 114.638 88.9554 114.372 89.439C114.234 89.6906 113.694 90.1753 113.419 90.3279C112.927 90.601 112.544 91.0925 112.028 91.3601C111.617 91.5735 111.29 91.8429 110.853 92.0196C110.153 92.302 109.467 92.6154 108.767 92.8941C107.607 93.3555 106.414 93.8043 105.283 94.3278C104.356 94.7567 103.466 95.258 102.688 95.9263C101.96 96.552 101.369 97.3032 100.731 98.0122C99.5891 99.2811 98.3278 100.53 97.3548 101.94C97.0273 102.415 96.7048 103.04 96.3082 103.453C96.1365 103.632 95.9807 103.923 95.7921 104.069C95.7767 104.081 95.8353 103.654 95.8566 103.582C96.105 102.744 95.1554 103.762 94.9821 103.876C94.2278 104.373 93.5152 104.998 92.889 105.646C92.642 105.902 92.4203 106.221 92.208 106.507C92.0718 106.69 91.8607 106.918 91.7564 107.116C91.5866 107.438 90.8579 108.095 91.1292 107.281C91.2804 106.827 91.5155 106.475 91.7098 106.048C91.7463 105.968 91.9371 105.535 91.7743 105.571C91.5868 105.613 91.4271 105.796 91.2618 105.887C90.321 106.4 90.3701 107.663 89.9034 108.503C89.8233 108.647 89.8712 108.267 89.8712 108.184C89.8712 107.944 89.8066 107.715 89.8066 107.467V104.987C89.8066 104.376 89.8712 103.758 89.8712 103.141C89.8712 102.019 90.6032 100.877 91.2582 100.023C92.6205 98.246 93.9729 96.4158 95.7706 95.0553C96.622 94.4111 97.5376 93.9929 98.5089 93.5679C98.9143 93.3905 99.2862 93.1731 99.6809 92.9909C100.055 92.818 100.496 92.5519 100.899 92.4712C101.295 92.392 101.702 92.1597 102.1 92.0483C102.788 91.8556 103.474 91.6855 104.19 91.6325C104.905 91.5795 105.654 91.4791 106.358 91.3458C106.945 91.2348 107.542 91.2273 108.129 91.0806C109.233 90.8045 110.25 90.3388 111.319 89.9551C111.938 89.7326 112.578 89.5546 113.189 89.31Z" fill="#2C6866"/>
<path d="M103.49 105.277C104.336 104.659 105.24 104.348 106.26 104.083C105.431 104.494 104.811 105.157 104.225 105.637C103.657 106.101 103.394 106.722 102.78 107.144C102.061 107.638 101.396 108.203 100.777 108.822C100.087 109.512 99.4231 110.211 98.7337 110.9C98.5642 111.07 98.3919 111.237 98.2248 111.409C98.1845 111.451 98.0016 111.632 98.0671 111.632C98.2551 111.632 98.4631 111.501 98.619 111.402C99.0138 111.151 99.5102 110.997 99.938 110.807C100.107 110.732 100.166 110.75 100.003 110.922C99.662 111.281 99.3303 111.652 99.0025 112.022C98.1774 112.955 97.2705 113.696 96.2284 114.37C95.6485 114.745 94.6301 115.059 94.2607 115.646C93.7095 116.521 95.1054 115.858 95.3718 115.696C95.6265 115.541 95.9915 115.515 96.275 115.424C96.5181 115.346 96.759 115.23 97.0026 115.176C97.2799 115.115 97.4768 114.986 97.7768 114.986C97.9323 114.986 98.3054 115.024 97.9739 115.119C97.7241 115.19 97.385 115.516 97.1567 115.671C96.6997 115.981 96.2516 116.282 95.8091 116.614C95.3233 116.978 94.6095 117.401 94.3002 117.95C94.1001 118.306 94.6937 118.005 94.8091 117.954C95.019 117.861 95.2202 117.785 95.4363 117.71C95.4691 117.699 96.1667 117.588 95.9883 117.811C95.8392 117.997 95.4078 118.131 95.1998 118.241C94.4159 118.654 93.8461 119.659 93.2285 120.277C93.0368 120.468 92.8402 120.75 92.7805 121.018C92.6973 121.393 92.9669 121.105 93.1031 120.986C93.5291 120.613 93.8893 120.16 94.3754 119.854C94.4967 119.777 94.8991 119.666 94.7625 119.954C94.626 120.242 94.4054 120.519 94.1819 120.742C93.6836 121.241 93.2467 122.163 93.1604 122.854C93.0915 123.404 93.0082 124.015 92.8558 124.549C92.7626 124.875 92.761 124.851 92.5045 124.585C92.3482 124.422 92.2002 124.22 92.0995 124.018C91.6398 123.099 91.2948 122.231 91.225 121.183C91.184 120.569 91.1641 119.964 91.1641 119.345C91.1641 118.847 91.2685 118.381 91.2931 117.89C91.3413 116.925 91.855 116.09 92.2966 115.273C92.8904 114.175 94.0155 113.554 94.87 112.7C95.6207 111.949 96.4346 111.316 97.1603 110.535C97.7382 109.913 98.2234 109.134 98.8699 108.585C99.5052 108.046 100.223 107.478 100.963 107.087C101.415 106.848 101.929 106.537 102.325 106.212C102.71 105.898 103.088 105.571 103.49 105.277Z" fill="#2C6866"/>
<path d="M109.16 145.178C109.659 145.74 110.732 145.846 110.773 146.727C110.773 146.954 110.835 146.066 110.741 145.859C110.655 145.671 110.579 145.289 110.579 145.082C110.579 144.864 110.535 144.612 110.508 144.31C110.482 144.013 110.473 143.846 110.445 143.548C110.355 142.602 110.318 141.94 110.318 141.135C110.318 140.401 110.53 138.001 110.318 138.849C110.254 139.103 109.87 140.339 109.87 141.049C109.87 141.814 109.805 142.589 109.805 143.34C109.805 143.757 109.49 144.069 109.304 144.404C109.184 144.619 108.946 144.938 109.16 145.178Z" fill="#012724"/>
<path d="M105.645 126.082C105.223 126.738 104.851 127.386 104.387 128.017C103.923 128.649 104.006 128.247 103.949 128.197C103.893 128.147 104.026 127.716 104.05 127.645C104.269 126.988 104.448 126.318 104.759 125.695C105.168 124.878 105.527 124.099 106.1 123.387C106.981 122.291 107.9 121.245 108.996 120.362C109.815 119.702 110.298 118.521 110.954 117.702C111.25 117.331 111.335 117.06 111.843 116.622C112.069 116.427 112.646 116.324 112.859 116.114C113.096 115.88 113.188 115.709 113.43 115.479C113.989 114.948 114.509 114.952 115.081 114.399C115.199 114.286 115.883 113.725 115.483 114.147C115.255 114.388 115.012 114.618 114.773 114.857C114.032 115.598 113.162 116.328 112.548 117.179C112.299 117.523 112.009 117.821 111.777 118.179C111.507 118.597 111.822 118.527 112.096 118.405C112.335 118.299 112.569 118.187 112.806 118.082C112.866 118.055 113.481 117.891 113.254 118.086C112.963 118.335 112.743 118.429 112.426 118.663C112.258 118.787 112.169 118.864 111.999 118.985C111.778 119.144 111.62 119.255 111.419 119.373C109.646 120.407 108.616 122.411 107.354 123.953C106.779 124.656 106.132 125.324 105.645 126.082Z" fill="#2C6866"/>
<path d="M130.221 82.4387C129.793 82.8099 129.386 83.1162 128.902 83.4387C128.481 83.1557 128.875 84.069 128.906 84.177C128.953 84.3413 128.97 84.5584 129.046 84.729C129.329 85.3663 129.763 85.3636 130.436 85.4888C131.776 85.738 133.159 85.4506 134.501 85.4386C135.44 85.4303 136.382 85.3741 137.325 85.3741C138.442 85.3741 139.448 85.1177 140.536 84.9225C143.396 84.4099 146.497 84.0795 149.389 84.4709C150.091 84.5659 150.789 84.5953 151.475 84.7792C151.829 84.8739 152.183 84.9677 152.54 85.0516C152.795 85.1116 153.035 85.2729 153.177 85.4924C153.241 85.5898 153.292 85.8856 153.131 85.8902C152.681 85.9031 152.229 85.8233 151.783 85.7755C151.191 85.7121 150.598 85.7173 150.006 85.6644C149.927 85.6574 148.844 85.5747 148.844 85.6644C148.844 85.7261 149.268 85.6952 149.325 85.6967C150.062 85.7166 151.125 86.1854 151.636 86.6967C151.878 86.9382 151.559 86.8097 151.439 86.797C150.922 86.7425 150.404 86.6832 149.884 86.6501C149.263 86.6105 148.651 86.5176 148.027 86.5354C147.755 86.5431 148.243 86.6897 148.289 86.6967C148.959 86.7983 149.618 86.9987 150.192 87.3741C151.087 87.9601 151.915 88.6079 152.769 89.2486C153.702 89.9481 154.457 90.8752 155.41 91.546C156.665 92.4284 157.911 93.3174 159.159 94.209C159.965 94.7845 160.96 95.1442 161.417 96.0835C161.526 96.3074 161.546 96.5842 161.546 96.829V96.8182C161.546 96.4987 161.59 96.1459 161.496 95.8398C161.413 95.5676 161.441 95.2068 161.385 94.9186C161.268 94.3079 161.072 93.7061 160.837 93.1302C160.544 92.4151 160.22 91.773 159.984 91.037C159.709 90.182 159.218 89.4684 158.873 88.65C158.305 87.3064 157.394 86.1947 156.471 85.0874C155.518 83.944 154.391 83.0869 153.059 82.4208C152.711 82.2469 152.309 82.1632 151.927 82.0982C151.843 82.0841 151.563 82.1324 151.708 82.0516C151.911 81.9386 152.41 81.8904 152.643 81.8904C152.951 81.8904 153.263 81.7613 153.572 81.7613C153.804 81.7613 153.151 81.5626 152.937 81.471C152.697 81.3678 152.455 81.2672 152.213 81.1664C150.785 80.5714 149.207 80.0326 147.669 79.8402C147.071 79.7655 146.507 79.4997 145.905 79.4424C145.602 79.4135 145.324 79.551 145.031 79.618C144.632 79.7092 144.708 79.1472 144.708 78.8618V77.6468C144.708 77.3419 144.639 77.3744 144.353 77.3744C144.128 77.3744 143.896 77.3189 143.662 77.3099C143.359 77.2982 142.948 77.0105 142.715 76.826C142.464 76.6272 142.286 76.5612 141.984 76.4568C141.601 76.3242 141.547 76.373 141.547 75.9551C141.547 75.7574 141.659 75.1595 141.533 75.0017C141.401 74.8368 140.93 74.9228 140.741 74.9228C140.306 74.9228 139.882 74.9636 139.454 74.9873C139.264 74.9979 139.037 75.0531 138.859 75.1164C138.5 75.2439 138.086 75.2297 137.712 75.2777C136.998 75.3692 136.149 75.4508 135.468 75.697C135.169 75.8052 134.846 75.8486 134.544 75.9551C134.311 76.0368 134.117 76.2143 133.909 76.3421C133.511 76.587 133.245 77.0402 132.873 77.3242C132.573 77.5543 132.441 77.7315 132.58 78.1127C132.701 78.448 132.556 78.6047 132.315 78.8645L132.307 78.8725C132 79.2037 131.683 79.6257 131.451 80.0194C131.267 80.3293 131.155 80.6001 131.562 80.6001C131.699 80.6001 132.171 80.5717 132.124 80.8295C132.063 81.1647 131.538 81.3306 131.325 81.5319C130.978 81.8605 130.58 82.1275 130.221 82.4387Z" fill="white"/>
<path d="M133.37 87.5032C131.903 87.5032 129.499 86.5215 128.969 86.729C129.245 87.093 129.033 88.3623 129.033 89.2128C129.033 89.8336 129.263 90.7778 129.979 90.9081C130.513 91.005 131.047 91.0116 131.578 91.1482C132.261 91.324 132.937 91.5162 133.614 91.6966C134.394 91.9048 135.179 92.2409 135.908 92.5855C135.978 92.6185 136.475 92.8267 136.513 92.693C136.553 92.554 136.417 92.4905 136.417 92.3704C136.417 92.0056 139.637 92.2596 139.904 92.374C140.07 92.4454 140.247 92.4858 140.416 92.5496C140.524 92.59 140.813 92.7668 140.732 92.6858C140.644 92.5977 140.558 92.4506 140.452 92.3919C140.12 92.2072 139.792 91.968 139.47 91.7611C139.13 91.5427 138.756 91.4003 138.395 91.2199C138.114 91.0794 137.815 90.9004 137.52 90.7934C137.027 90.6141 136.065 90.8894 136.065 90.1841C136.065 89.2833 137.535 88.9417 138.216 88.7935C141.187 88.1459 144.33 88.097 147.341 88.2128C147.564 88.2214 147.133 88.078 147 88.0193C146.767 87.9157 146.558 87.7137 146.323 87.5964C145.975 87.4222 145.637 87.1883 145.305 86.9871C144.902 86.7425 144.262 86.7935 143.814 86.7935H139.571C138.52 86.7935 137.486 87.0114 136.456 87.2129C135.425 87.4147 134.422 87.5032 133.37 87.5032Z" fill="#B8D6B0"/>
<path d="M130.625 93.2457C129.916 93.1142 128.769 92.9315 128.293 92.3647C128.293 92.8338 127.991 93.3931 128.166 94.0159C128.274 94.4019 128.213 94.7554 128.293 95.2225C128.363 95.6336 128.073 96.1831 128.038 96.8101C127.979 97.8942 128.388 98.4617 128.388 99.5681C128.388 100.759 127.899 101.471 127.975 102.653C128.033 103.549 127.953 104.757 128.102 105.637C128.31 106.863 128.099 108.152 128.229 109.384C128.343 110.463 128.319 112.447 128.483 113.512C128.592 114.223 128.435 115.203 128.483 115.925C128.54 116.781 128.662 116.717 129.245 117.322C129.695 117.788 129.909 118.053 130.452 118.402C130.947 118.72 131.074 118.754 131.531 119.164C132.928 120.18 133.882 119.923 133.119 119.545C132.039 119.164 131.976 118.91 131.595 118.592C130.833 118.084 130.338 117.191 129.88 116.56C129.191 115.61 129.182 114.337 129.626 114.083C130.325 113.575 129.827 112.38 129.875 111.475C129.888 111.251 129.995 109.495 130.492 109.571C130.893 109.633 131.247 109.905 131.592 110.098C131.866 110.252 132.159 110.386 132.402 110.586C132.802 110.913 131.765 109.772 131.463 109.353C130.985 108.687 130.572 108.017 130.259 107.26C130.1 106.874 129.842 106.55 129.757 106.127C129.618 105.432 129.978 104.46 130.775 104.346C130.886 104.33 131.026 104.33 130.84 104.227C130.615 104.104 130.383 103.991 130.173 103.84C130.013 103.726 129.442 103.252 129.901 103.131C130.495 102.973 131.42 103.233 131.933 103.507C132.469 103.793 132.938 104.187 133.316 104.665C133.396 104.766 133.485 105.141 133.485 105.012C133.485 104.821 133.497 104.63 133.452 104.443C133.413 104.275 133.334 104.128 133.252 103.977C133.064 103.631 132.93 103.219 132.707 102.898C132.393 102.446 131.966 101.985 131.578 101.597C131.414 101.433 131.271 101.302 131.062 101.195C130.991 101.159 130.708 101.039 130.711 101.038C131.475 100.678 132.699 100.963 133.463 101.102C133.666 101.139 133.885 101.116 134.09 101.116C134.205 101.116 133.888 101.004 133.807 100.923C133.481 100.596 133.17 100.283 132.872 99.9229C132.267 99.1903 131.467 98.4168 130.553 98.0843C130.317 97.9986 130.386 97.8262 130.61 97.8262C131.25 97.8262 131.868 97.9288 132.503 97.9553C132.815 97.9683 133.847 98.1044 133.09 97.7259C132.678 97.5195 132.121 97.432 131.75 97.1847L131.747 97.1825C131.462 96.9926 131.288 96.8769 131.743 96.8083C132.182 96.742 132.646 96.7912 133.083 96.7151C133.571 96.6304 134.13 96.6087 134.624 96.6005C135.218 96.5906 135.807 96.6486 136.381 96.794C137.041 96.9614 135.16 96.943 135.723 97.3181C135.785 97.3595 136.866 98.2072 137.12 98.5247C136.739 97.5086 137.402 96.9019 137.374 96.8736C136.577 96.077 136.537 96.1489 135.839 95.2457C135.528 94.8429 134.518 94.7426 133.881 94.6509C132.195 94.4082 130.467 94.0277 130.007 93.8889C129.496 93.7347 132.429 93.5608 131.901 93.4894C131.473 93.4316 131.049 93.3245 130.625 93.2457Z" fill="white"/>
<path d="M146.451 122.02C146.454 122.027 146.456 122.034 146.459 122.042C146.643 122.541 147.398 122.989 147.612 123.471C147.919 124.162 148.732 124.711 149.34 125.116C150.238 125.715 151.221 126.4 151.838 127.31C152.178 127.81 152.359 128.381 152.612 128.926C152.891 129.526 153.099 130.205 153.29 130.836C153.439 131.331 153.516 131.843 153.641 132.342C153.737 132.726 153.913 133.176 153.935 133.568C153.961 134.043 154.25 134.702 153.963 135.152C153.556 135.792 153.162 136.287 152.584 136.793C152.345 137.002 152.073 137.17 151.806 137.342C151.62 137.461 151.666 137.556 151.677 137.374C151.699 136.994 151.906 136.636 151.935 136.263C151.949 136.076 152.057 135.898 152.064 135.711C152.075 135.407 152.064 135.101 152.064 134.797C152.064 133.669 151.773 132.439 151.419 131.378C151.107 130.443 150.815 129.514 150.447 128.596C150.15 127.854 149.625 127.292 149.175 126.643C148.842 126.161 148.531 125.695 148.136 125.256C147.958 125.059 147.727 124.906 147.562 124.7C146.988 123.986 146.753 122.884 146.459 122.042C146.456 122.034 146.454 122.027 146.451 122.02Z" fill="white"/>
<path d="M131.834 134.466C131.549 133.488 131.147 132.623 130.709 131.695C130.709 132.276 130.773 132.986 130.773 133.566C130.773 134.473 130.711 135.449 130.87 136.34C130.927 136.661 130.929 136.998 130.967 137.322C131.021 137.78 131.168 138.211 131.225 138.666C131.327 139.482 131.485 140.287 131.598 141.1C131.809 142.623 131.95 144.145 132.193 145.663C132.311 146.403 132.447 147.178 132.677 147.892C132.784 148.227 132.847 148.578 132.938 148.917C132.992 149.116 133.14 149.293 133.161 149.501C133.189 149.783 133.29 149.996 133.29 150.29V151.533C133.29 151.961 133.382 152.341 133.482 152.752L133.49 152.788C133.526 152.937 133.574 153.603 133.705 153.691C133.784 153.744 133.692 153.487 133.689 153.392C133.666 152.805 133.609 152.267 133.856 151.723C134.073 151.246 134.072 150.891 134.422 150.494C135.18 149.635 136.153 148.698 135.967 147.469C135.925 147.195 135.98 146.896 135.902 146.63C135.888 146.582 135.863 146.225 135.834 146.254C135.615 146.474 135.369 146.995 135.211 146.44C134.917 145.413 135.003 144.314 134.906 143.251C134.849 142.626 134.78 141.985 134.616 141.376C134.477 140.86 134.224 140.226 134.193 139.695C134.161 139.16 134.271 140.794 134.096 141.301C133.874 141.941 133.833 141.254 133.773 140.921C133.688 140.445 133.669 139.97 133.562 139.502C133.455 139.035 133.21 138.645 133.031 138.19C132.813 137.632 132.651 137.062 132.447 136.498C132.203 135.822 132.035 135.154 131.834 134.466Z" fill="white"/>
<path d="M129.937 145.465C129.42 143.72 129.627 141.67 129.55 139.888C128.975 140.463 128.667 141.4 128.518 142.182C128.351 143.058 128.131 143.894 128.131 144.795C128.131 145.719 128.161 146.647 128.07 147.562C128.035 147.907 128.002 148.29 128.002 148.633C128.002 148.864 127.975 149.251 128.131 149.436C128.296 149.632 128.27 149.659 128.547 149.501C128.754 149.382 128.909 149.147 129.149 149.064C129.401 148.976 129.389 149.283 129.418 149.469C129.465 149.779 129.593 150.108 129.615 150.418C129.658 151.053 129.853 151.746 129.987 152.368C130.09 152.842 130.128 153.817 130.65 154.045C131.398 154.373 132.233 154.422 133.005 154.666C133.125 154.703 133.827 154.958 133.729 154.87C133.59 154.745 133.384 154.721 133.263 154.565C133.045 154.284 132.956 153.852 132.84 153.504C132.35 152.032 131.658 150.596 131.113 149.107C130.674 147.908 130.299 146.686 129.937 145.465Z" fill="#012724"/>
<path fill-rule="evenodd" clip-rule="evenodd" d="M89.4624 75.2591C89.687 74.2361 90.2485 72.5427 91.5173 72.2608C91.9851 72.1568 92.4685 72.1672 92.9517 72.1775C93.6788 72.1931 94.4057 72.2087 95.0791 71.8346C95.4405 71.6339 95.7534 71.5068 96.0438 71.3888C96.5662 71.1765 97.016 70.9938 97.545 70.4649C98.7263 69.2836 99.8057 68.2043 100.818 66.9034C102.259 65.0499 103.734 62.5056 104.532 60.3133C104.845 59.4503 105.05 57.9637 104.79 57.0563C104.72 56.811 103.749 57.072 103.009 57.271C102.644 57.369 102.335 57.452 102.218 57.452C101.283 57.452 101.146 56.8204 100.983 56.0752C100.974 56.0322 100.964 55.9889 100.955 55.9453C100.841 55.4351 100.528 55.0501 100.216 54.6652C99.983 54.3786 99.7502 54.0919 99.5999 53.7536C98.1769 50.5523 95.3351 49.682 92.3681 48.7733C92.1257 48.699 91.8824 48.6245 91.6391 48.5485C89.5259 47.8882 87.1153 47.9835 84.7965 48.0752C84.0019 48.1066 83.218 48.1376 82.4606 48.1376C82.2549 48.1376 82.047 48.1342 81.8379 48.1309C80.746 48.1134 79.6218 48.0953 78.6248 48.5485C78.307 48.6929 77.7448 48.8001 77.15 48.9135C76.2306 49.0888 75.2335 49.279 74.9412 49.6443C74.8114 49.8065 75.2957 49.7956 75.8196 49.7838C76.2391 49.7743 76.6839 49.7643 76.8591 49.8422C77.1566 49.9744 77.4839 50.095 77.8194 50.2187C78.6552 50.5269 79.5422 50.8539 80.1469 51.425C80.8144 52.0553 81.6151 52.5827 82.4228 53.1147C83.7831 54.0107 85.1634 54.9198 85.9615 56.3562C86.0697 56.5509 86.1765 56.7413 86.2814 56.9283C87.4379 58.9892 88.3665 60.644 88.3665 63.2051C88.3665 64.3867 87.8777 65.1227 86.6617 65.1227C85.6978 65.1227 85.378 64.6997 84.9445 64.1263C84.8061 63.9432 84.6561 63.7448 84.4698 63.5399C84.0224 63.0478 83.7525 62.4572 83.4847 61.8712C83.238 61.3313 82.9931 60.7953 82.6128 60.3438C82.291 59.9617 81.8236 59.2643 81.5777 58.8218C81.4366 58.5679 81.2318 58.4193 81.0274 58.2711C80.8239 58.1236 80.6209 57.9764 80.4818 57.726C79.9526 56.7735 79.0047 55.7621 78.229 54.9864C77.8557 54.6131 77.5765 54.1661 77.2978 53.7197C77.0198 53.2746 76.7422 52.8301 76.372 52.4599C75.6908 51.7788 74.933 51.1584 74.176 50.5385C73.4204 49.9199 72.6655 49.3018 71.9882 48.6246C70.9372 47.5737 68.3178 45.7606 66.7216 45.672C65.9598 45.6296 64.9288 45.3359 64.134 45.1088C63.2576 44.8585 62.385 44.8501 61.3789 44.8501C60.4753 44.8501 58.9464 46.1424 58.5021 46.92C57.869 48.0276 55.534 49.5073 54.2401 49.5073C53.6008 49.5073 53.0063 49.7839 52.4034 50.0644C51.8956 50.3006 51.3818 50.5396 50.8305 50.6184C50.135 50.7177 49.4462 51.0412 48.7644 51.3614C48.2619 51.5974 47.7632 51.8316 47.2687 51.9729C46.6614 52.1464 44.9353 52.9716 44.5288 53.4797C44.4498 53.5784 44.2068 53.5893 43.9727 53.5999C43.7124 53.6116 43.4633 53.6228 43.4633 53.7536C43.4633 53.9682 44.3459 53.9207 44.7581 53.8986C44.8419 53.8941 44.9063 53.8906 44.9398 53.8906C49.2512 53.8906 53.6086 55.488 56.9951 58.1217C58.6057 59.3742 60.7515 59.9458 62.8012 60.4917C63.4386 60.6615 64.0668 60.8288 64.6667 61.0134C65.8614 61.381 67.5491 62.3114 68.5025 63.0529C68.7793 63.2681 69.0892 63.5263 69.4123 63.7956C70.1246 64.3892 70.9014 65.0366 71.5316 65.3967C72.1596 65.7555 72.7457 66.3976 73.3048 67.0102C73.5823 67.3143 73.8532 67.611 74.1192 67.8623C74.4891 68.2116 74.9075 68.5058 75.3298 68.8028C75.7599 69.1054 76.1941 69.4107 76.5851 69.78C77.0035 70.1751 78.1579 71.4237 77.1331 71.4237C75.6577 71.4237 74.5835 71.1108 73.2364 70.5409C72.5451 70.2485 71.795 69.495 71.1783 68.8756C71.0343 68.7309 70.8975 68.5935 70.7705 68.4711C70.0938 67.8186 69.2975 67.3795 68.4947 66.9368C68.1969 66.7726 67.8983 66.6079 67.6045 66.4316C66.908 66.0138 66.2432 65.5126 65.5884 65.0188C65.4176 64.8901 65.2475 64.7618 65.0777 64.6357C64.8614 64.475 64.6109 64.2351 64.3506 63.9859C63.9239 63.5773 63.471 63.1435 63.0989 62.992C61.5388 62.3564 60.0678 61.5939 58.6058 60.8361C57.4821 60.2536 56.3637 59.6738 55.2142 59.1566C52.8383 58.0875 50.0674 57.0853 47.5427 56.4171C46.6504 56.1809 45.7722 55.7198 44.8877 55.2554C43.5947 54.5765 42.2886 53.8906 40.9061 53.8906C38.7203 53.8906 35.8114 54.9164 34.1174 56.3562C33.1543 57.1747 32.0405 57.7622 30.9182 58.3541C29.6662 59.0144 28.4038 59.6803 27.3286 60.6786C26.9017 61.075 26.4548 61.5596 25.9888 62.0651C24.8772 63.2706 23.6565 64.5946 22.336 65.1227C21.4949 65.4591 20.658 65.8338 19.8301 66.2045C19.6145 66.301 19.3995 66.3973 19.1852 66.4925C18.9765 66.5852 18.8165 66.6558 18.6978 66.7079C19.0765 66.5492 19.7327 66.2864 20.0224 66.2338C26.1386 65.1218 32.2116 68.2164 37.5906 70.9573C38.1766 71.2559 38.7544 71.5503 39.3231 71.8346C43.5979 73.9718 48.1248 75.3399 52.7332 76.4918C53.7186 76.7382 54.7492 76.8304 55.7786 76.9225C57.0851 77.0394 58.3897 77.1562 59.598 77.5877C60.1502 77.7849 60.7505 77.8397 61.3513 77.8945C62.1242 77.9651 62.8978 78.0357 63.5708 78.4095C63.9204 78.6037 64.2862 78.7591 64.65 78.9135C65.3444 79.2084 66.0315 79.5002 66.5846 80.0533C67.1377 80.6063 68.2585 82.1466 66.8282 82.3667C66.5624 82.4075 66.2865 82.4517 66.0029 82.4972C63.7616 82.8563 61.032 83.2936 58.9283 82.7928C57.1818 82.377 55.5049 81.7326 53.8275 81.0881C53.1548 80.8296 52.482 80.571 51.8046 80.3272C50.9226 80.0097 50.0443 79.6378 49.1642 79.2651C47.7239 78.6552 46.2785 78.0432 44.8028 77.6638C43.8546 77.42 42.9696 77.3206 42.0356 77.2156C41.7559 77.1842 41.4717 77.1523 41.1801 77.1159C40.7415 77.061 40.2446 77.0594 39.7381 77.0576C38.941 77.0549 38.1203 77.0522 37.4661 76.8419C34.304 75.8256 30.6598 75.0179 27.2677 75.5939C23.6301 76.2115 18.2873 77.3238 16.0343 80.5251C15.4919 81.2958 15.3504 82.0933 15.2071 82.9001C15.1014 83.4957 14.9948 84.0965 14.7253 84.6953C14.4707 85.261 14.2637 85.8605 14.0555 86.4634C13.6903 87.521 13.3215 88.5892 12.6856 89.5047C11.1916 91.6559 9.30556 93.5241 7.43734 95.3746C7.13728 95.6718 6.83768 95.9686 6.54023 96.266C6.41986 96.3864 6.21355 96.522 5.98127 96.6747C5.28829 97.1303 4.36413 97.7379 4.80095 98.5452C5.08674 98.0224 5.55915 97.7412 6.03068 97.4606C6.31462 97.2915 6.59825 97.1227 6.84061 96.9015C11.9113 92.2722 20.5577 91.0209 27.146 92.1834C28.8858 92.4904 30.6083 92.931 32.3218 93.3693C33.4257 93.6516 34.5258 93.9331 35.6243 94.1771C37.9405 94.6918 40.5331 94.5973 43.0492 94.5056C44.0117 94.4705 44.9631 94.4359 45.8835 94.4359C47.2716 94.4359 48.6025 94.0934 49.9333 93.7509C51.2638 93.4085 52.5942 93.0661 53.9813 93.0661C57.2764 93.0661 53.9123 94.8481 52.4424 95.6267C52.3011 95.7015 52.1773 95.767 52.0786 95.8209C49.1473 97.4196 43.9474 98.0266 40.6626 96.7493C39.5771 96.3272 38.3885 96.0418 37.2103 95.759C36.5446 95.5992 35.8823 95.4402 35.2438 95.2577C34.6909 95.0998 34.1406 94.8683 33.5869 94.6354C32.9047 94.3485 32.2175 94.0594 31.5145 93.9032C30.7191 93.7265 29.8593 93.7873 29.002 93.848C28.3198 93.8963 27.6392 93.9445 26.9938 93.8727C25.3007 93.6847 23.6612 93.614 21.9402 93.614C19.5309 93.614 17.1665 94.851 14.951 96.0101C14.1494 96.4295 13.3672 96.8387 12.6095 97.1754C11.2827 97.765 9.97467 98.5185 8.69096 99.258C7.74564 99.8025 6.81353 100.339 5.89689 100.798C4.02214 101.735 2.33508 103.748 2.33508 105.881C2.33508 107.953 2.0806 110.917 0.752051 112.578C0.49825 112.895 0.31964 113.301 0.137658 113.715C-0.0705516 114.188 -0.283175 114.672 -0.617875 115.043C-0.656107 115.086 -0.709264 115.143 -0.772733 115.212C-1.17803 115.649 -2.00379 116.541 -2.04869 116.9C-2.10482 117.349 -0.794729 116.271 -0.34389 115.865C0.386456 115.208 2.48034 114.458 3.4919 114.435C7.16541 114.351 9.70153 113.67 13.0814 112.243C13.7952 111.942 14.4728 111.547 15.1499 111.152C16.1392 110.575 17.1275 109.999 18.2262 109.716C19.5069 109.387 20.756 108.904 22.0045 108.421C22.7524 108.131 23.5 107.842 24.2539 107.586C24.891 107.369 25.539 107.135 26.1952 106.898C28.9648 105.899 31.8797 104.846 34.7262 104.846C34.9179 104.846 35.1461 104.829 35.3917 104.811C36.258 104.746 37.341 104.666 37.801 105.257C38.4043 106.033 37.6488 106.825 36.979 107.068C36.3988 107.279 35.8706 107.657 35.344 108.033C34.9417 108.32 34.5403 108.607 34.1174 108.818C33.1927 109.281 32.1628 109.529 31.1535 109.772C30.9582 109.819 30.7637 109.866 30.5708 109.914C30.176 110.013 29.7782 110.13 29.3778 110.248C28.3251 110.558 27.2542 110.873 26.1718 110.873C25.9433 110.873 25.699 110.862 25.4474 110.85C24.4987 110.805 23.4461 110.756 22.747 111.299C21.8899 111.966 20.8542 112.564 19.8507 113.143C19.4357 113.383 19.0263 113.619 18.6372 113.856C15.9195 115.51 13.2435 115.804 10.1437 115.804C9.86536 115.804 9.51752 115.783 9.13208 115.76C7.62963 115.67 5.55574 115.546 4.80095 116.489C3.38488 118.259 1.50347 119.128 -0.526546 120.051C-1.41135 120.453 -2.52107 120.86 -3.52516 120.994C-4.15512 121.078 -3.86168 121.078 -3.15138 121.078C-1.87713 121.077 0.738739 121.075 1.77189 121.557C2.28084 121.795 2.68256 122.126 3.08267 122.456C3.40472 122.722 3.72572 122.987 4.10076 123.201C4.74248 123.568 5.37182 123.98 6.00694 124.396C6.8207 124.929 7.64396 125.468 8.51497 125.925C8.57298 125.956 8.63059 125.986 8.68782 126.016C11.3841 127.434 13.2337 128.406 16.1561 128.406C18.0631 128.406 20.6356 128.381 22.7979 127.58C23.9992 126.939 24.6408 126.974 23.158 127.797C23.0053 127.882 22.8538 127.964 22.7038 128.046C22.0745 128.387 21.4705 128.715 20.9052 129.167C19.7715 130.074 17.2249 131.146 15.7604 131.146H13.0205C12.3913 131.146 12.7535 131.191 13.1829 131.246C13.44 131.278 13.7213 131.314 13.8282 131.344C14.5314 131.545 15.2981 131.657 16.0343 131.694C17.0018 131.742 17.988 132.001 18.9835 132.263C20.7492 132.728 22.544 133.2 24.3148 132.516C28.5536 130.878 30.6166 128.132 32.5343 124.297C33.1966 122.973 35.891 120.462 37.4052 120.462C38.5572 120.462 39.91 120.121 40.8452 119.427C41.711 118.784 42.2259 117.991 42.7468 117.189C43.1136 116.625 43.4834 116.055 43.9808 115.53C45.5847 113.838 46.9849 111.891 48.3622 109.976C48.6374 109.593 48.9117 109.212 49.1866 108.834C49.6962 108.133 53.5703 104.893 53.5703 107.19C53.5703 111.694 48.947 115.065 45.2333 117.772C44.5444 118.275 43.8868 118.754 43.2959 119.214C42.2734 120.009 41.3546 120.639 40.1603 121.162C39.71 121.359 39.2117 121.495 38.7173 121.63C38.1035 121.798 37.4958 121.964 36.9942 122.242C36.2632 122.648 35.8756 122.917 35.3351 123.612C34.8987 124.173 34.3617 124.68 33.8275 125.185C33.2479 125.733 32.6715 126.277 32.2299 126.884C32.0655 127.11 31.8982 127.349 31.7265 127.594C30.777 128.949 29.694 130.494 28.2267 131.146C28.0781 131.212 27.9332 131.272 27.7989 131.327C27.004 131.655 26.5808 131.83 27.9679 132.226C28.1792 132.287 28.4084 132.264 28.6377 132.242C28.8669 132.219 29.0961 132.196 29.3074 132.257C29.5534 132.327 29.8044 132.547 30.0753 132.785C30.3887 133.059 30.7287 133.357 31.1188 133.474C34.1763 134.392 37.2459 135.255 40.4799 135.255C42.8359 135.255 45.8159 132.368 46.5989 130.293C47.0026 129.224 47.501 128.207 48.0006 127.188C48.4124 126.349 48.8251 125.507 49.1866 124.632C49.7028 123.382 50.547 122.499 51.4158 121.589C51.8244 121.162 52.2386 120.728 52.6266 120.248C52.8348 119.991 53.0383 119.733 53.2412 119.475C53.7861 118.784 54.3266 118.099 54.9403 117.448C56.1482 116.167 57.2058 114.45 58.015 112.913C58.6915 111.627 59.7531 110.062 60.6939 108.955C61.0925 108.487 61.3169 107.843 61.5397 107.204C61.7668 106.553 61.9922 105.907 62.3987 105.455C62.6712 105.152 62.8892 104.763 63.1136 104.363C63.3514 103.939 63.5963 103.502 63.9209 103.142C64.2265 102.802 64.5548 102.491 64.8826 102.18C65.2094 101.87 65.5358 101.56 65.8388 101.224C65.8982 101.158 66.0083 100.958 66.1504 100.7C66.6492 99.7945 67.543 98.172 68.0307 99.0931C68.3267 99.6523 68.2147 100.924 68.1365 101.813C68.1173 102.031 68.1002 102.225 68.0916 102.381C68.0304 103.482 67.1888 105.468 66.7216 106.49C66.495 106.986 66.3428 107.506 66.1907 108.027C66.0445 108.527 65.8985 109.027 65.6866 109.503C65.5005 109.922 65.6326 110.615 65.7563 111.264C65.8295 111.648 65.8997 112.016 65.8997 112.304C65.8997 113.499 64.5755 114.405 63.5309 115.121C63.3204 115.265 63.1214 115.401 62.9467 115.53C62.2716 116.03 61.6815 116.716 61.0886 117.405C60.5277 118.056 59.9643 118.711 59.324 119.214C58.9052 119.543 58.5311 119.912 58.1559 120.282C57.9011 120.533 57.6458 120.785 57.3757 121.025C57.1527 121.223 56.9104 121.527 56.6621 121.838C56.3108 122.279 55.9476 122.734 55.61 122.927C54.7431 123.422 53.5925 125.535 53.0646 126.505C53.0445 126.542 53.0254 126.577 53.0071 126.61C52.445 127.641 51.6415 128.604 50.8537 129.549C50.5223 129.946 50.1936 130.34 49.8867 130.735C49.6833 130.996 49.4928 131.256 49.3052 131.512C48.8753 132.098 48.4604 132.663 47.9384 133.185C47.4629 133.661 49.1767 134.144 50.2997 134.46C50.6585 134.562 50.9569 134.646 51.1045 134.707C53.9327 135.885 58.1804 136.536 61.1049 135.392C64.7068 133.983 66.871 131.819 69.5178 129.172L69.6137 129.076C70.8388 127.851 71.5022 127.035 72.3383 125.53C72.6987 124.881 72.8367 124.131 72.9741 123.384C73.0893 122.758 73.2042 122.133 73.4495 121.573C74.7196 118.67 75.8761 115.288 76.7221 112.243C76.8911 111.634 77.0819 111 77.2773 110.35C77.9954 107.962 78.777 105.363 78.777 103.065C78.777 102.557 78.9137 102.123 79.0508 101.688C79.179 101.281 79.3075 100.873 79.3249 100.402C79.3646 99.3319 79.7375 97.842 80.2078 96.9015C80.6955 95.9261 81.4334 95.121 82.3388 96.0796C82.8239 96.5932 82.9019 97.943 82.9675 99.0788C82.9994 99.631 83.0284 100.133 83.0999 100.463C83.6868 103.177 82.5986 105.929 81.5407 108.604C80.9443 110.112 80.3575 111.595 80.086 113.034C79.507 116.103 78.0781 119.422 76.2502 121.953C75.5057 122.984 74.8996 124.289 74.3932 125.454C74.2907 125.689 74.0697 126.027 73.8262 126.398C73.3543 127.118 72.7975 127.967 72.8524 128.461C72.8978 128.87 76.3956 129.493 76.646 129.502C77.4695 129.531 78.2906 129.576 79.1133 129.621C80.5222 129.699 81.9358 129.776 83.3738 129.776C87.1457 129.776 92.2479 126.192 93.2373 122.531C93.9063 120.056 93.7895 117.697 93.6688 115.261C93.6208 114.291 93.5722 113.31 93.5722 112.304C93.5722 110.6 93.1566 108.993 92.7434 107.394C92.3347 105.814 91.9283 104.242 91.9283 102.594C91.9283 102.319 91.9458 102.009 91.9643 101.681C92.0223 100.653 92.0897 99.4593 91.6543 98.6974C91.0867 97.7041 91.3958 97.7084 92.2769 97.7204C92.3812 97.7218 92.4934 97.7233 92.6132 97.7233C94.674 97.7233 97.1628 100.296 98.0929 101.97C99.2422 104.038 99.1611 106.711 99.087 109.154C99.0692 109.739 99.0519 110.311 99.0519 110.858C99.0519 112.32 98.3897 114.206 97.8037 115.546C97.499 116.242 97.1171 116.902 96.7374 117.559C96.2685 118.37 95.8029 119.175 95.4901 120.035C95.1577 120.949 95.6942 120.728 96.3226 120.469C96.6505 120.333 97.0034 120.188 97.271 120.188C98.7336 120.188 100.369 119.085 101.533 118.27C102.045 117.912 102.552 117.582 103.052 117.258C104.281 116.461 105.465 115.693 106.571 114.587C107.653 113.505 108.209 112.115 108.758 110.741C108.942 110.282 109.125 109.825 109.326 109.382C109.798 108.345 109.769 106.646 109.746 105.324C109.742 105.061 109.737 104.813 109.737 104.587C109.737 103.251 109.058 102.042 108.403 100.876C108.244 100.594 108.087 100.315 107.941 100.037C107.608 99.4011 107.173 98.7934 106.745 98.1965C106.598 97.9921 106.453 97.7889 106.312 97.5863C106.136 97.3312 105.873 97.0967 105.613 96.8636C105.281 96.5674 104.953 96.2735 104.806 95.9426C104.653 95.5991 103.362 94.0894 103.009 93.888C102.536 93.6176 101.518 91.9922 101.518 91.4224C101.518 90.6606 105.079 91.3641 105.567 91.4833C108.883 92.2939 112.365 95.1468 114.06 98.0582C114.546 98.8931 114.882 99.7561 115.219 100.622C115.411 101.118 115.604 101.614 115.826 102.107C115.851 102.162 115.879 102.23 115.908 102.303C116.072 102.702 116.287 103.229 116.313 102.381C116.373 100.415 116.648 98.3926 117.074 96.4753C117.358 95.1977 117.172 93.8152 116.997 92.5082C116.947 92.1389 116.898 91.7756 116.861 91.4224C116.766 90.5215 115.945 89.4662 115.26 88.5855C115.039 88.3019 114.833 88.0365 114.669 87.8001C114.391 87.3992 114.057 87.0069 113.722 86.6128C113.233 86.0385 112.741 85.4607 112.416 84.8475C111.883 83.8396 111.698 82.7679 111.511 81.6846C111.314 80.5396 111.115 79.3816 110.498 78.2726C110.147 77.641 109.558 77.1765 108.964 76.7081C108.413 76.2739 107.858 75.8363 107.485 75.2591C106.956 74.4419 104.358 73.9212 103.497 73.8893C100.286 73.7704 97.7756 74.2956 94.729 75.1982C94.604 75.2352 94.4555 75.2823 94.2889 75.3352C92.8743 75.784 90.1561 76.6463 89.4624 75.2591ZM94.305 59.185L94.305 59.1849C94.5834 58.6018 94.8022 58.1435 95.5974 57.8232C97.2216 57.1689 98.3963 58.5812 98.3963 60.3058C98.3963 60.5376 98.4126 60.8306 98.4308 61.1588V61.1589C98.5254 62.8608 98.6727 65.5115 96.8772 65.5115C96.1849 65.5115 94.8971 65.2926 94.5041 64.6439C94.3718 64.4256 94.1421 64.2056 93.9031 63.9767C93.4832 63.5746 93.0346 63.145 93.0346 62.6484C93.0346 61.5649 93.1039 61.0763 93.7495 60.1708C94.006 59.8111 94.1632 59.4818 94.305 59.185ZM48.386 61.2627L48.3861 61.2627C49.9183 61.5431 51.4649 61.8261 52.8292 63.1924C53.3817 63.4701 52.429 64.7464 52.0913 65.0858C51.6111 65.5686 50.7813 65.5275 50.0799 65.4928L50.0799 65.4928C49.9086 65.4843 49.7451 65.4763 49.5961 65.4763C47.5038 65.4763 45.0584 65.1885 43.9552 63.1924M48.386 61.2627C47.4898 61.0987 46.5985 60.9356 45.7514 60.5571L48.386 61.2627ZM45.7514 60.5571C45.2828 60.3477 43.3706 59.7784 42.9067 60.2448L45.7514 60.5571ZM42.9067 60.2448C42.3741 60.7802 43.2322 62.0814 43.7117 62.8084L42.9067 60.2448ZM39.2849 86.7282C38.3035 86.5923 37.3634 86.5519 36.3789 86.5519C36.0699 86.5519 35.7657 86.4637 35.4617 86.3755L35.4616 86.3755C35.1578 86.2874 34.854 86.1993 34.5455 86.1993C34.383 86.1993 34.2159 86.1931 34.0479 86.1868H34.0478C33.2805 86.1582 32.4952 86.1289 32.0491 86.6891C31.6442 87.1974 31.4239 88.6188 31.5713 89.2848C31.8855 90.7049 33.0947 91.1931 34.3798 91.3222C35.8255 91.4674 37.3942 91.5928 38.7973 91.1753C38.9291 91.136 39.1329 91.0963 39.3734 91.0494L39.3735 91.0493L39.3736 91.0493L39.3736 91.0493C40.2296 90.8823 41.5492 90.6249 41.7326 89.9802C41.9962 89.0533 42.1242 87.9942 41.3523 87.2964C41.0899 87.0592 40.5019 86.9547 39.9201 86.8512C39.7016 86.8124 39.4841 86.7737 39.2849 86.7282ZM66.6945 118.558L66.6945 118.558C67.6512 117.511 68.591 116.483 69.9756 116.927L70.0595 116.954C71.0165 117.26 71.8879 117.539 71.8879 118.777C71.8879 119.515 71.8369 120.225 71.786 120.934L71.786 120.934L71.786 120.934C71.7596 121.301 71.7333 121.667 71.7141 122.037C71.6617 123.046 70.9528 123.86 70.2929 124.617L70.2928 124.617L70.2928 124.617C70.0922 124.848 69.8962 125.073 69.7245 125.296C69.6439 125.401 69.562 125.512 69.4782 125.625C68.8389 126.485 68.0859 127.499 66.9429 127.499C65.609 127.499 64.0648 127.427 64.0648 125.737C64.0648 125.581 64.0597 125.396 64.0541 125.191C64.0259 124.169 63.9847 122.673 64.4994 122.047C64.6784 121.829 64.7803 121.494 64.882 121.16L64.882 121.159C64.9591 120.906 65.0361 120.653 65.1465 120.451C65.3817 120.022 65.7749 119.521 66.1123 119.179C66.3094 118.979 66.502 118.768 66.694 118.558L66.6945 118.558ZM104.229 102.031C104.084 102.673 102.859 104.804 102.049 104.804L101.989 104.804C101.815 104.803 101.728 104.803 101.696 104.845C101.664 104.886 101.686 104.968 101.728 105.132C101.748 105.206 101.771 105.298 101.797 105.411C101.83 105.559 101.868 105.708 101.906 105.859L101.907 105.86L101.907 105.86C102.02 106.303 102.136 106.757 102.136 107.221C102.136 108.597 103.293 112.603 105.014 112.603C106.667 112.603 107.55 110.899 108.028 109.522C108.351 108.592 108.251 107.674 108.151 106.763C108.117 106.456 108.084 106.15 108.067 105.844C108.012 104.87 107.355 104.338 106.678 103.79C106.513 103.656 106.346 103.522 106.187 103.379C105.67 102.917 104.849 102.339 104.229 102.031ZM102.852 78.1233C103.311 78.1504 103.702 78.3691 104.155 78.6226L104.155 78.6229C104.262 78.6824 104.371 78.7439 104.486 78.8052C105.247 79.2115 105.658 79.6138 105.809 80.1457C105.85 80.2901 105.912 80.4109 105.973 80.5296C106.072 80.7228 106.168 80.9106 106.168 81.1861C106.168 81.3989 106.123 81.5647 106.079 81.728C106.036 81.8863 105.994 82.0423 105.994 82.2362C105.994 83.914 102.307 82.2355 101.63 81.8959C100.569 81.364 100.086 80.8157 99.3741 80.0083L99.3735 80.0076C99.3129 79.9389 99.2507 79.8683 99.1863 79.7957C98.7665 79.3221 98.9592 77.768 99.5354 77.4621C100.115 77.1545 101.21 77.6437 101.755 77.8872L101.804 77.9094C102.002 77.9973 102.664 78.1122 102.852 78.1233Z" fill="white"/>
<path d="M81.4746 77.4801C81.341 77.9426 77.4861 77.3882 77.0973 77.3882C76.4525 77.2843 76.3118 77.1361 76.4703 77.6064C76.6531 78.149 76.9046 78.2755 77.3063 78.6287C77.578 78.8676 79.8106 81.0056 79.7678 81.0178C78.4995 81.3762 75.3672 78.4878 74.7983 77.5031C74.2367 76.5308 72.8322 76.3719 71.9652 75.8261C70.8238 75.1076 69.9737 74.7574 69.3179 73.46C68.4442 71.7314 67.009 70.0823 65.8114 68.6015C65.7218 68.4906 65.1246 68.016 64.9754 67.9238C64.8825 67.8663 64.8147 67.8263 64.7677 67.7997C64.6337 67.7236 64.6683 67.7558 64.7677 67.7997C64.8478 67.835 64.9699 67.8779 65.0799 67.8779C65.9923 67.8779 66.9417 68.7424 67.7969 69.1183C70.2986 70.2182 72.1185 72.6042 74.7519 73.506C76.0231 73.9413 77.4461 73.5262 78.3977 72.679C78.5486 72.5446 79.9175 73.9074 80.0233 74.1951C80.3083 74.9705 81.6935 76.7223 81.4746 77.4801Z" fill="#1C484A"/>
<path d="M43.9142 85.5097H44.123H47.6721C49.4112 85.5097 51.6379 85.873 53.309 85.4042C54.9474 84.9447 57.7524 85.5987 59.3963 86.0137C60.7206 86.3481 62.1788 86.8384 63.4006 87.4553C64.6107 88.0663 66.087 88.9461 67.3249 89.4575C67.7389 89.6285 69.6512 90.0398 69.2802 89.8316C68.7656 89.5429 68.1423 89.4978 67.61 89.1992C66.6426 88.6564 65.6816 87.8476 64.6292 87.454C62.9214 86.8152 60.959 85.8409 59.1547 85.5097C56.4066 85.0051 53.4516 84.0339 50.6413 84.0339C48.3592 84.0339 46.0586 83.823 43.7518 83.823C42.2611 83.823 41.1647 82.7059 40.0519 81.8319C38.8512 80.8888 37.4429 81.0424 35.9808 81.0823C34.0406 81.1352 33.3694 82.3071 31.8053 83.0968C30.8807 83.5637 29.4196 84.0339 28.3605 84.0339C28.0287 84.0339 26.4004 83.8151 26.4004 84.3384C26.4004 85.0856 29.0681 84.8631 29.5088 85.0412C30.8188 85.5703 32.8782 85.5097 34.299 85.5097H43.9142Z" fill="#1C484A"/>
<path d="M32.5078 99.93C26.0219 102.006 17.5123 106.677 12.3066 108.045C13.77 108.045 15.4612 107.718 16.8317 107.263C17.7459 106.96 18.9186 106.683 19.683 106.091C20.0997 105.768 21.157 105.148 21.6569 105.148C21.9982 105.148 23.8505 105.224 23.6193 105.355C22.9565 105.732 21.9795 105.891 21.4491 106.39C20.1561 107.605 15.4411 110.121 17.0857 109.447C18.7193 108.777 20.1484 107.61 21.8185 107.056C23.6869 106.436 25.4643 105.509 27.3133 104.895C28.4741 104.51 29.445 103.907 30.6955 103.907H34.3317C34.7812 103.907 37.5188 104.209 36.4211 103.39C36.0946 103.146 34.7424 102.459 35.994 102.459C37.9138 102.459 39.7354 101.507 41.6503 101.424C43.6861 101.336 45.658 100.804 47.7222 100.804C48.7846 100.804 46.6232 100.51 46.2636 100.51C44.0472 100.51 41.9505 100.804 39.7341 100.804C37.9016 100.804 36.2024 101.234 34.4472 101.723C33.9495 101.862 31.016 102.005 32.7156 101.378C34.6872 100.651 36.8553 100.225 38.6952 99.3094C38.8604 99.2271 37.0331 99.1484 36.6173 99.1484C35.4251 99.1484 33.6458 99.5658 32.5078 99.93Z" fill="#5E978F"/>
<path d="M0.389191 114.429C0.356988 114.461 0.324913 114.493 0.292969 114.525C0.309404 114.493 0.342414 114.46 0.389191 114.429C2.54074 112.278 5.26914 109.72 8.42593 109.72C9.57686 109.72 10.5273 110.138 11.6583 110.138C12.7288 110.138 13.8217 110.075 14.8906 110.138C15.4391 110.17 14.1891 110.45 14.0564 110.509C13.0357 110.964 11.8931 111.215 10.8357 111.601C9.55537 112.067 8.18995 111.6 6.96617 112.181C5.98173 112.648 4.2112 113.899 3.10823 113.899C2.68095 113.899 0.854355 114.119 0.389191 114.429Z" fill="#1C484A"/>
<path d="M24.7892 122.842C22.3756 124.711 20.9217 127.178 17.5898 127.178C19.9241 127.178 22.6404 126.945 24.4761 125.32C25.0474 124.814 25.6795 124.3 26.3542 123.966C27.0769 123.609 27.4156 122.81 28.0236 122.337C29.2006 121.422 29.8314 119.486 31.1538 118.759C31.8496 118.376 32.4857 115.93 31.9885 116.545C31.2168 117.499 30.0468 118.423 29.0206 119.126C27.453 120.2 26.2922 121.678 24.7892 122.842Z" fill="#5E978F"/>
<path d="M28.744 131.882C28.7097 131.916 28.6759 131.95 28.6426 131.983C28.6741 131.948 28.7079 131.915 28.744 131.882C29.4261 131.205 30.3046 130.333 31.2054 129.26L31.2094 129.255C31.8816 128.454 32.247 128.019 32.9673 127.258C33.4683 126.729 33.5539 126.151 34.0885 125.656C34.6472 125.138 35.2174 124.977 35.7574 124.661C37.5529 123.612 39.1609 121.953 41.1516 121.22C42.7885 120.618 46.9354 117.062 45.7011 118.288C44.2158 119.763 42.1913 121.227 40.6866 122.721C39.1034 124.294 38.062 125.996 36.7107 127.722C35.6163 129.119 34.7795 130.502 32.8071 130.782C31.8169 130.922 29.6249 131.088 28.744 131.882Z" fill="#5E978F"/>
<path d="M57.7542 107.004C56.914 108.495 56.1934 109.858 56.1934 111.564C56.4721 111.008 56.8732 110.495 57.1877 109.902C57.5345 109.248 57.682 108.499 58.0201 107.824C58.8402 106.186 59.8522 104.463 61.292 103.344C62.0004 102.794 62.9589 102.273 63.7778 101.901C64.2188 101.701 64.7627 102.112 65.3501 101.174C66.1242 100.19 67.2231 99.3429 67.2231 98.4725C67.2231 97.5667 67.7619 97.28 68.5758 97.6413C70.6302 98.553 70.8895 101.693 70.0326 103.575C69.4796 104.79 69.0734 106.235 68.6799 107.512C68.2843 108.796 67.4312 109.952 67.4312 111.356C67.4312 112.768 67.7398 113.083 69.0961 112.442C70.0095 112.01 70.4338 111.19 71.0731 110.41C71.9933 109.287 72.2784 107.494 72.7496 106.15C73.2145 104.823 73.6745 103.21 73.6745 101.797C73.6745 101.409 73.4474 99.7814 73.9289 100.551C74.3846 101.279 74.5069 101.685 74.5069 102.629C74.5069 103.399 74.0907 104.13 74.0907 104.914C74.0907 105.74 73.8826 106.62 73.8826 107.5V116.39C73.8826 117.917 74.4518 115.801 74.5069 115.305C74.5913 114.547 75.3394 113.916 75.3394 113.123C75.3394 112.226 75.7556 111.358 75.7556 110.421C75.7556 109.251 76.2403 108.284 76.5418 107.2C76.9517 105.727 77.111 104.096 77.6286 102.675C77.9985 101.659 78.5263 100.132 78.6575 99.0844C78.7987 97.9565 79.489 97.1261 79.7212 96.0827C79.878 95.3781 80.1568 94.5242 80.9583 94.5242C82.9601 94.5242 83.5563 97.2098 84.1955 98.6687C84.9855 100.472 84.44 103.066 83.6637 104.811C82.5262 107.366 82.1305 110.067 81.5364 112.811C81.2613 114.081 81.3004 115.568 80.7039 116.759C80.4394 117.288 80.2353 117.542 80.3455 118.202C80.432 118.721 81.0824 117.883 81.1664 117.695C81.8999 116.047 83.0692 114.585 83.71 112.857C84.1511 111.668 85.3373 110.756 85.791 109.532C86.2907 108.185 86.8511 106.878 87.2478 105.492C88.0178 102.801 87.2757 99.5016 87.005 96.7985C86.8168 94.9188 86.2848 93.1089 85.4326 91.4071C84.9205 90.3843 84.3138 90.1341 83.71 91.4071C83.5248 91.7974 83.782 92.2383 83.1434 92.2383C82.733 92.2383 82.6294 91.7241 82.4613 91.4071C81.9617 90.4647 81.546 89.4638 81.0624 88.4978C80.9011 88.1757 79.8014 85.6299 79.0853 86.5236C78.5641 87.1742 78.3513 87.8617 77.9523 88.6017C77.5759 89.2997 77.4205 90.5077 77.4205 91.3032C77.4205 92.1953 76.4523 90.7997 76.3337 90.5759C74.7156 87.5239 74.662 92.4228 73.7785 92.2268C73.1756 92.093 72.0689 90.9847 71.8131 92.1344C71.6603 92.8207 71.2156 93.6256 71.1772 94.3164C71.1178 95.3836 68.3608 92.9184 67.7318 93.2773C66.0982 94.2095 65.9555 97.0911 64.7258 98.4725C63.216 100.169 61.686 101.924 60.0434 103.564C59.0786 104.527 58.4174 105.827 57.7542 107.004Z" fill="#297744"/>
<path d="M90.2357 112.456C89.7673 114.605 89.202 116.555 89.202 118.815C90.2384 119.343 90.0697 121.619 89.6564 122.567C89.3772 123.208 89.1927 124.112 89.0089 124.768C88.9426 125.005 88.4413 126.356 88.8953 125.996C89.9716 125.142 90.3592 123.353 90.8832 122.15C91.5057 120.722 91.4562 119.217 91.9623 117.772C93.0144 114.768 92.6441 111.73 92.4735 108.598C92.3974 107.201 91.4512 105.895 91.4512 104.533C91.4512 104.179 91.2032 102.653 90.9968 102.39C90.6672 101.97 90.8844 101.1 90.5878 100.722C90.1861 100.21 89.7044 97.4567 90.2243 97.1777C90.8799 96.8258 92.0239 96.5545 92.7802 96.7259C93.2275 96.8273 95.3692 97.5042 95.5746 97.0155C95.8904 96.2643 92.3487 95.4634 91.8601 95.4634C91.1104 95.4634 90.099 95.7795 89.6109 96.4016C89.2488 96.8631 89.4065 97.6746 89.4065 98.2665C89.4065 101.518 90.8378 104.121 90.8378 107.347V109.861C90.8378 110.862 90.4392 111.522 90.2357 112.456Z" fill="#1C484A"/>
<path d="M95.8824 88.9675C96.2306 89.7544 97.231 90.9125 97.0049 90.3486C96.7859 89.8027 96.353 89.3601 95.8824 88.9675Z" fill="#2C6866"/>
<path d="M83.697 81.4902C83.3826 82.9038 81.548 83.7016 80.3789 84.2976C80.3789 85.5621 82.0746 84.5056 82.8761 84.5056C83.9326 84.5056 83.7416 86.2155 84.1248 86.8855C84.6834 87.8625 85.5385 88.6943 86.0439 89.7044C86.9207 91.4567 86.1903 89.8946 85.9861 88.9766C85.5091 86.8314 84.1248 84.8488 84.1248 82.634C84.1248 82.0085 84.0613 79.852 83.697 81.4902Z" fill="#5E978F"/>
<path d="M71.2167 90.799C70.505 91.296 69.6529 91.9463 68.785 92.1046C68.486 92.2529 68.7795 92.4211 68.9444 92.4211C69.2594 92.4211 69.6835 92.4078 69.9809 92.3024C70.4102 92.1502 70.765 91.9191 71.1768 91.7089C71.5141 91.5368 71.8306 91.1551 72.2133 91.1551C72.5084 91.1551 73.1826 91.2848 73.4269 91.1199C73.6808 90.9486 73.8461 90.4366 73.9673 90.166C74.1218 89.8212 74.3085 89.6286 74.5254 89.3176C74.7987 88.9258 75.1262 89.1769 75.522 89.1769C75.7631 89.1769 75.9818 89.2818 76.182 89.4143C76.3691 89.5381 76.3592 89.6517 76.3592 89.4539C76.3592 89.1254 76.3418 88.7925 76.3592 88.4648C76.3881 87.919 76.9736 87.5493 76.8331 86.9219C76.7317 86.4689 76.2472 86.6877 76.0403 86.8823C75.1933 87.6786 74.3329 88.5665 73.4092 89.2736C72.7014 89.8155 71.9503 90.2867 71.2167 90.799Z" fill="#1C484A"/>
<path d="M63.7588 95.2919C63.2048 95.6091 62.2402 96.1306 61.6926 96.4624C61.9715 96.4624 62.2455 96.4317 62.4856 96.5611C62.7018 96.6777 62.8978 97.0456 62.6442 97.207C62.4207 97.3492 62.0357 97.8519 61.9128 98.077C61.6844 98.4956 61.3752 98.8756 61.1683 99.297C60.8615 99.9216 60.4482 100.424 60.2255 101.104C60.1012 101.484 59.9635 101.864 59.8862 102.257C59.8569 102.406 59.8919 102.555 59.7893 102.679L59.7886 102.679C59.7737 102.697 59.6629 102.831 59.7496 102.831C59.923 102.831 60.4113 101.75 60.5823 101.589C60.8229 101.361 61.0667 101.119 61.2167 100.822C61.3125 100.632 61.5171 100.509 61.5956 100.32C61.8165 99.7882 62.5697 99.2714 62.9614 98.8485C63.2764 98.5084 63.6489 98.0798 63.913 97.6913C64.5623 96.7366 65.2635 95.8119 65.7767 94.7671C65.9522 94.4097 66.2675 93.2685 66.0498 93.601C65.8276 93.9403 65.3127 94.0456 65.0673 94.3635C64.7608 94.7607 64.1869 95.0467 63.7588 95.2919Z" fill="#1C484A"/>
<path d="M91.6156 80.6697C90.7183 79.8922 89.6197 78.4745 89.5879 77.2036C89.8286 77.604 90.3947 77.9674 90.5265 78.0181C90.8126 78.1282 91.1356 78.463 91.4031 78.6378C91.7052 78.8353 92.019 78.9906 92.3151 79.1956C93.1148 79.7492 93.8189 80.4405 94.6084 81.0105C95.0813 81.3521 95.6597 81.4822 96.1225 81.8073C96.4329 82.0255 96.8642 82.1563 97.2027 82.3385C97.5757 82.5394 97.9855 82.6958 98.3892 82.821C98.7417 82.9304 99.021 83.0824 99.3455 83.2416C99.787 83.4581 100.313 83.5069 100.784 83.6223C101.354 83.7616 101.957 83.8967 102.515 84.0738C102.938 84.2079 103.458 84.2844 103.848 84.4987C104.479 84.8455 105.103 85.3107 105.685 85.7338L105.725 85.7627C106.276 86.1632 106.854 86.5838 107.319 87.0839C107.863 87.6694 108.715 87.8914 109.267 88.4429C109.744 88.9205 110.035 89.716 110.139 90.364C110.214 90.8348 110.228 91.3416 110.228 91.8204C110.228 91.9236 110.41 92.4554 110.29 92.1834C110.138 91.8427 109.642 91.1681 109.271 91.1476C108.884 91.126 108.596 90.8136 108.262 90.6695C107.539 90.3575 106.93 89.8936 106.261 89.492C105.638 89.1182 104.867 88.9451 104.198 88.6598C103.486 88.3564 102.739 88.0349 102.002 87.801C100.514 87.3286 99.0156 86.7834 97.6764 85.9684C97.0642 85.5958 96.4663 85.2212 95.879 84.8174C95.3003 84.4197 94.7905 83.8398 94.2896 83.3389C93.3996 82.4491 92.5675 81.4946 91.6156 80.6697Z" fill="#B8D6B0"/>
<path d="M95.582 75.9152C94.5462 76.4283 93.245 76.6264 92.0723 76.6264C92.0723 77.1634 92.7132 77.4231 93.0694 77.6975C93.5687 78.0823 94.0069 78.5357 94.5451 78.8784C95.3448 79.3877 96 80.0293 96.8583 80.4544C97.5359 80.79 98.2971 80.8636 98.9943 81.1304C99.1724 81.1986 99.3738 81.3675 99.5704 81.3675C99.7085 81.3675 99.4268 81.2047 99.3932 81.1919C98.7627 80.9517 98.2783 80.4746 97.7712 80.0637C97.1564 79.5653 96.8583 79.2099 96.8583 78.4043C96.8583 76.9546 98.0581 76.2814 99.2868 75.8757C99.7834 75.7117 100.509 75.8362 101.024 75.8362C102.057 75.8362 103.054 75.8894 104.082 75.9767C105.194 76.0712 106.315 76.3495 107.352 76.7493C107.473 76.7957 108.29 77.1965 108.044 76.9249C107.715 76.5633 107.27 76.1688 106.785 75.9942C106.141 75.7624 105.464 75.2803 104.871 74.9275C102.891 73.7507 100.387 74.5734 98.3119 74.9846C97.4005 75.1651 96.4083 75.506 95.582 75.9152Z" fill="#5E978F"/>
<path d="M111.807 87.6527C111.156 87.1744 110.195 86.4937 109.369 86.4937C109.547 86.5829 109.761 87.0953 109.867 87.2961C110.003 87.553 110.349 87.881 110.406 88.1387C110.507 88.5936 110.815 88.9957 110.953 89.4449C111.111 89.9603 111.131 90.4523 111.131 90.9874C111.131 91.2814 110.976 92.3894 111.251 92.512C111.621 92.6767 112.111 92.9622 112.412 93.2342C112.703 93.4962 113.033 93.7019 113.253 94.0411C113.46 94.3597 113.636 94.7017 113.858 95.0085C114.195 95.4725 114.281 96.0633 114.495 96.5867C114.605 96.8561 114.619 97.1777 114.753 97.4248C115.057 97.9853 115.286 98.6006 115.571 99.1724C115.623 99.2748 115.776 99.6731 115.776 99.3328C115.776 98.8581 115.936 98.4038 115.936 97.9241C115.936 96.2611 115.929 94.6625 115.576 93.0336C115.225 91.4143 114.558 89.9198 113.213 88.9188C112.71 88.5443 112.322 88.0312 111.807 87.6527Z" fill="#B8D6B0"/>
<path d="M68.3774 85.0686C67.1658 85.2174 65.4214 84.9708 64.2012 84.9708C64.2012 85.5876 65.2876 85.9437 65.8074 86.0732C67.1689 86.4123 68.5551 86.0016 69.9034 85.9309C70.153 85.9178 71.1144 85.987 70.5102 86.331C70.0667 86.5835 69.5893 86.8282 69.1003 87.0333C68.7414 87.1838 68.7763 87.6885 69.0601 87.9712C69.3938 88.3037 69.6107 88.5164 70.1042 88.3668C70.7555 88.1693 71.4141 87.9325 71.8488 87.3711C72.358 86.7134 72.851 86.2231 73.5532 85.7754C74.3384 85.2747 75.1296 84.7357 75.9626 84.3129C76.2511 84.1665 76.8549 83.9307 76.8549 83.9307C76.8549 83.9307 76.4512 84.0012 76.2526 84.0507C74.6914 84.4395 73.1822 84.5138 71.5855 84.6463C70.5059 84.7359 69.4533 84.9365 68.3774 85.0686Z" fill="#1C484A"/>
<path d="M55.4354 99.4426C53.7961 100.262 51.869 101.419 49.9973 101.457C49.2855 101.694 48.7046 102.238 47.9466 102.455C47.3734 102.618 46.3241 102.718 46.0423 103.352C45.7138 104.091 44.7811 104.213 44.1381 104.505C43.1263 104.965 42.2259 105.295 41.3458 105.979C40.6939 106.486 40.1604 107.265 39.5789 107.847C39.0323 108.393 38.3232 108.773 37.7662 109.33C37.2736 109.823 38.3501 109.3 38.5901 109.202C39.0152 109.028 39.4173 108.834 39.8169 108.671C41.2763 108.076 42.7236 106.943 44.0648 106.107C44.7843 105.659 45.4033 105.162 46.1339 104.753C46.6189 104.481 47.1606 104.224 47.6811 104.029C47.9779 103.918 48.3396 104.006 48.6057 103.837C49.1211 103.509 49.8118 103.247 50.4093 103.114C50.9049 103.004 51.0436 102.779 51.4895 102.528C52.9658 101.697 54.0623 100.37 55.5177 99.5616C56.0869 99.2454 57.8977 98.6986 57.248 98.6553C56.5987 98.612 56.0143 99.1531 55.4354 99.4426Z" fill="#1C484A"/>
<path d="M79.02 83.05C81.839 81.1919 86.6016 76.7765 88.6304 74.801C90.8728 72.7187 91.914 73.2793 91.3534 74.8811C90.7928 76.4828 85.427 78.8854 83.4248 81.2881C81.4226 83.6907 75.8966 86.8141 73.5741 88.6561C71.2516 90.4981 63.3229 94.9029 59.5588 96.7449C55.7948 98.5869 43.141 103.793 41.1388 104.513C39.1366 105.234 35.3725 106.435 38.8163 104.754C42.26 103.072 46.825 101.63 58.9982 95.8639C71.1714 90.0976 75.4961 85.3725 79.02 83.05Z" fill="#D5DFBD"/>
</svg>
